<svg xmlns="http://www.w3.org/2000/svg" width="19.666" height="20.636" viewBox="0 0 19.666 20.636"><defs><style>.a{fill:#fff;}</style></defs><g transform="translate(-775.426 -1449)"><path class="a" d="M802.509,1464.231a7.617,7.617,0,1,0-7.471-7.615A7.552,7.552,0,0,0,802.509,1464.231Zm0-13.757a6.143,6.143,0,1,1-6.025,6.141A6.09,6.09,0,0,1,802.509,1450.474Z" transform="translate(-19.612)"/><path class="a" d="M783.165,1506.606a.714.714,0,0,0,.512-.217.747.747,0,0,0,0-1.042l-7.016-7.121a.713.713,0,0,0-1.022,0,.747.747,0,0,0,0,1.042l7.016,7.122A.714.714,0,0,0,783.165,1506.606Z" transform="translate(11.205 -36.97)"/></g></svg>