<svg xmlns="http://www.w3.org/2000/svg" width="592.539" height="400.403" viewBox="0 0 592.539 400.403"><defs><style>.a{fill:#ebebeb;}.b{fill:#e0e0e0;}.c{fill:#f5f5f5;}.d{fill:#b4a6f0;}.e{fill:#b2a7eb;}.f{fill:#455a64;}.g{fill:#fafafa;}.h{fill:#263238;}.i{opacity:0.3;}.j{opacity:0.5;}.k{fill:#ffbe9d;}.l{opacity:0.2;}.m{opacity:0.6;}.n{fill:#fff;}.o{fill:#eb996e;}</style></defs><g transform="translate(-41.02 -15.186)"><g transform="translate(46.285 59.603)"><g transform="translate(0 124.374)"><path class="a" d="M74.1,198.1s-7.025-.506-6.378,15.253,2.255,24.152,2.255,24.152-.207,3.494-2.913,2.808-7.8-4.086-10.311-1.544c-2.608,2.636-1.68,6.679,1.779,11.442s10.653,15.475,11.3,16.447c.635.953.89,2.74-1.028,2.569s-14.866-4.561-16.581,1.708,10.1,17.953,11.368,19.255,1.335,2.124.821,2.911-4.727-1.1-8.461-2.195-8.255-1.715-8.942,1.984,4.518,14.526,24.007,25.9l9.376,4.681,8.874-5.661c18.253-13.271,22.348-24.563,21.3-28.176s-5.49-2.545-9.1-1.08-7.609,3.763-8.2,3.03-.6-1.557.526-2.98,11.718-14.23,9.385-20.3-14.777-.4-16.668-.041-1.817-1.442-1.28-2.454c.546-1.031,6.634-12.409,9.6-17.494s3.483-9.2.624-11.562c-2.756-2.278-7.481,1.615-10.1,2.568s-3.178-2.5-3.178-2.5.76-8.512-.173-24.256-8.04-14.473-8.04-14.473" transform="translate(-46.955 -198.078)"/><g transform="translate(27.702 14.138)"><path class="b" d="M78.186,214.016s.019.111.037.329.043.554.075.967c.059.868.144,2.118.253,3.721.215,3.232.491,7.911.811,13.693.642,11.565,1.394,27.548,2.164,45.2s1.483,33.645,2.061,45.213c.294,5.771.531,10.446.7,13.7.08,1.6.142,2.856.185,3.725.017.413.029.735.039.969.007.218,0,.331,0,.331s-.019-.111-.037-.329-.043-.554-.075-.967c-.059-.867-.144-2.117-.253-3.72-.215-3.232-.491-7.91-.811-13.692-.642-11.565-1.394-27.55-2.165-45.211s-1.482-33.637-2.06-45.205c-.294-5.771-.531-10.447-.7-13.7-.079-1.6-.142-2.856-.185-3.725-.017-.414-.03-.735-.039-.97C78.179,214.129,78.186,214.016,78.186,214.016Z" transform="translate(-78.183 -214.016)"/></g><g transform="translate(16.731 45.735)"><path class="b" d="M65.817,249.636a3.121,3.121,0,0,1,.583.485c.361.328.868.818,1.488,1.429,1.237,1.226,2.9,2.964,4.7,4.915l4.585,5.017L78.57,263a3.109,3.109,0,0,1,.489.579,3.113,3.113,0,0,1-.587-.481c-.36-.329-.867-.819-1.481-1.437-1.226-1.238-2.866-3-4.666-4.949l-4.619-4.982-1.4-1.508A3.007,3.007,0,0,1,65.817,249.636Z" transform="translate(-65.816 -249.635)"/></g><g transform="translate(30.902 43.58)"><path class="b" d="M81.792,262.993c-.07-.069,3.359-3.66,7.658-8.019s7.843-7.837,7.914-7.767-3.358,3.659-7.658,8.02S81.863,263.063,81.792,262.993Z" transform="translate(-81.791 -247.205)"/></g><g transform="translate(30.865 76.285)"><path class="b" d="M81.749,294.325a3.2,3.2,0,0,1,.654-.415l1.834-1.03c1.547-.869,3.681-2.078,5.986-3.5s4.356-2.762,5.831-3.749l1.749-1.167a3.174,3.174,0,0,1,.666-.394,3.219,3.219,0,0,1-.585.507c-.391.308-.964.742-1.686,1.261-1.44,1.043-3.471,2.431-5.788,3.848s-4.472,2.6-6.053,3.412c-.792.4-1.437.723-1.89.93A3.182,3.182,0,0,1,81.749,294.325Z" transform="translate(-81.749 -284.073)"/></g><g transform="translate(15.332 77.026)"><path class="b" d="M64.239,284.912a2.727,2.727,0,0,1,.648.3c.405.216.986.538,1.7.945,1.427.811,3.386,1.952,5.539,3.233s4.091,2.457,5.486,3.324c.7.433,1.258.79,1.641,1.042a2.759,2.759,0,0,1,.577.424,2.73,2.73,0,0,1-.648-.3c-.405-.216-.986-.538-1.7-.944-1.427-.812-3.387-1.953-5.54-3.233s-4.091-2.456-5.486-3.323c-.7-.434-1.258-.79-1.641-1.043A2.76,2.76,0,0,1,64.239,284.912Z" transform="translate(-64.238 -284.909)"/></g><g transform="translate(12.251 101.008)"><path class="b" d="M60.766,311.946a4.437,4.437,0,0,1,.825.4l2.182,1.2c1.835,1.03,4.356,2.474,7.13,4.089s5.277,3.094,7.08,4.18l2.125,1.3a4.449,4.449,0,0,1,.754.52,4.478,4.478,0,0,1-.824-.4l-2.182-1.2c-1.835-1.03-4.357-2.474-7.132-4.089s-5.276-3.093-7.078-4.179l-2.125-1.3A4.51,4.51,0,0,1,60.766,311.946Z" transform="translate(-60.766 -311.944)"/></g><g transform="translate(31.945 98.705)"><path class="b" d="M82.967,322.93a5.237,5.237,0,0,1,.815-.546L86.061,321c1.923-1.172,4.575-2.8,7.452-4.676s5.445-3.637,7.293-4.924L103,309.874a5.215,5.215,0,0,1,.829-.525,5.055,5.055,0,0,1-.746.638c-.494.392-1.219.947-2.125,1.616-1.812,1.341-4.358,3.141-7.245,5.018s-5.56,3.476-7.519,4.594c-.98.556-1.779,1-2.338,1.29A5.114,5.114,0,0,1,82.967,322.93Z" transform="translate(-82.967 -309.347)"/></g><g transform="translate(20.099 128.469)"><path class="b" d="M95.55,342.9H69.612l8.466,64.084h9.007Z" transform="translate(-69.612 -342.899)"/><g transform="translate(1.344 5.236)"><path class="c" d="M71.129,351.443c-.01.007.029.091.139.229a1.635,1.635,0,0,0,.625.447,3.138,3.138,0,0,0,2.739-.336c1.048-.577,1.96-1.713,3.364-2.214a7.364,7.364,0,0,1,4.769.095,20.367,20.367,0,0,1,4.442,2.152,30.944,30.944,0,0,0,3.612,1.938,9.982,9.982,0,0,0,2.664.77,4.937,4.937,0,0,0,.752.051c.173,0,.263-.007.263-.022a13.485,13.485,0,0,1-3.558-1.072,35.5,35.5,0,0,1-3.532-2,19.716,19.716,0,0,0-4.517-2.221,7.61,7.61,0,0,0-5.034-.055,6.607,6.607,0,0,0-1.895,1.172,14.9,14.9,0,0,1-1.485,1.151,3.045,3.045,0,0,1-2.526.438A2.6,2.6,0,0,1,71.129,351.443Z" transform="translate(-71.127 -348.801)"/></g><g transform="translate(2.29 14.977)"><path class="c" d="M72.2,364.486c.035.021.206-.264.611-.687a5.769,5.769,0,0,1,2.072-1.315,9.273,9.273,0,0,1,3.607-.543,37.972,37.972,0,0,1,4.513.615,15.5,15.5,0,0,0,4.621.192,12.71,12.71,0,0,0,3.637-1.038,11.513,11.513,0,0,0,2.186-1.3,3.089,3.089,0,0,0,.693-.623,23.056,23.056,0,0,1-3,1.649,13.3,13.3,0,0,1-3.563.925,15.927,15.927,0,0,1-4.508-.223,34.005,34.005,0,0,0-4.568-.586,9.123,9.123,0,0,0-3.731.656,5.443,5.443,0,0,0-2.081,1.481,3.712,3.712,0,0,0-.393.575C72.217,364.4,72.183,364.479,72.2,364.486Z" transform="translate(-72.193 -359.783)"/></g><g transform="translate(3.761 24.211)"><path class="c" d="M93.091,371.98a2.19,2.19,0,0,0-.715-.372,7.663,7.663,0,0,0-2.149-.46,13.7,13.7,0,0,0-3.25.185c-1.21.2-2.506.53-3.868.82a16.3,16.3,0,0,1-3.863.436,8.412,8.412,0,0,1-3.067-.663,7.089,7.089,0,0,1-2.326-1.732,2.012,2.012,0,0,0,.439.677,5.5,5.5,0,0,0,1.761,1.326,8.293,8.293,0,0,0,3.176.782,15.657,15.657,0,0,0,3.967-.412c1.377-.293,2.664-.637,3.847-.85a14.906,14.906,0,0,1,3.167-.271A11.922,11.922,0,0,1,93.091,371.98Z" transform="translate(-73.851 -370.192)"/></g><g transform="translate(4.584 33.379)"><path class="c" d="M74.78,382.035a4.208,4.208,0,0,1,2.518-.254,12.139,12.139,0,0,1,2.635.982,10.013,10.013,0,0,0,3.42.942,10.254,10.254,0,0,0,6.205-1.438,8.8,8.8,0,0,0,1.544-1.187c.315-.336.477-.53.457-.55a22.517,22.517,0,0,1-2.151,1.479,10.639,10.639,0,0,1-6.017,1.275c-2.455-.14-4.341-1.6-6.044-1.8a3.856,3.856,0,0,0-1.956.169A1.287,1.287,0,0,0,74.78,382.035Z" transform="translate(-74.779 -380.527)"/></g><g transform="translate(6.029 43.604)"><path class="c" d="M76.409,395.637a4.971,4.971,0,0,0,2.163-.43c1.3-.436,2.917-1.435,4.8-2.184a7.811,7.811,0,0,1,2.756-.577,5.068,5.068,0,0,1,2.216.506,4.9,4.9,0,0,1,1.6,1.382,1.188,1.188,0,0,0-.247-.546,3.547,3.547,0,0,0-1.215-1.1,5.081,5.081,0,0,0-2.351-.632,7.712,7.712,0,0,0-2.912.572c-1.953.778-3.516,1.807-4.761,2.3C77.232,395.46,76.4,395.569,76.409,395.637Z" transform="translate(-76.409 -392.053)"/></g><g transform="translate(7.3 52.894)"><path class="c" d="M77.842,402.542a6.051,6.051,0,0,0,1.643.533,30.184,30.184,0,0,0,8.267.813,6.053,6.053,0,0,0,1.715-.2c-.006-.128-2.628-.016-5.835-.339C80.424,403.039,77.874,402.418,77.842,402.542Z" transform="translate(-77.842 -402.526)"/></g></g></g><g transform="translate(431.914 144.533)"><g transform="translate(0 0)"><rect class="c" width="80.915" height="54.54" transform="matrix(0.975, -0.223, 0.223, 0.975, 0, 18.027)"/></g><g transform="translate(0.398 0.581)"><path class="b" d="M613.176,221.46a5.608,5.608,0,0,1-.572.876l-1.756,2.426-6.574,8.849-21.961,29.1-.181.24-.271-.131-.656-.316-33.237-16.139L537.931,241.4l-2.713-1.383a5.777,5.777,0,0,1-.924-.528,5.73,5.73,0,0,1,.988.394l2.772,1.26,10.138,4.757,33.331,15.944.656.316-.453.109L603.861,233.3l6.76-8.709,1.866-2.343A5.583,5.583,0,0,1,613.176,221.46Z" transform="translate(-534.294 -221.459)"/></g><g transform="translate(12.544 33.503)"><path class="b" d="M547.991,296.845c-.181-.092,4.086-8.736,9.527-19.3s10-19.063,10.182-18.969-4.085,8.735-9.529,19.306S548.171,296.938,547.991,296.845Z" transform="translate(-547.986 -258.571)"/></g><g transform="translate(58.326 26.844)"><path class="b" d="M599.6,251.068c.128-.158,7.642,5.738,16.782,13.166s16.449,13.58,16.322,13.737-7.641-5.737-16.785-13.168S599.468,251.225,599.6,251.068Z" transform="translate(-599.595 -251.065)"/></g></g><g transform="translate(152.186)"><g transform="translate(0)"><rect class="c" width="32.157" height="47.708" transform="matrix(0.225, -0.974, 0.974, 0.225, 0, 31.332)"/></g><g transform="translate(7.296 0.411)"><path class="b" d="M273.222,69.072a3.277,3.277,0,0,1-.529.318l-1.556.835-5.765,3-19.137,9.786-.158.08-.11-.138-.267-.337L232.221,65.5l-4.046-5.217-1.082-1.432a3.479,3.479,0,0,1-.355-.518,3.469,3.469,0,0,1,.423.464l1.146,1.381,4.154,5.132L246.04,82.349l.266.336-.267-.059,19.2-9.671,5.826-2.88,1.593-.763A3.326,3.326,0,0,1,273.222,69.072Z" transform="translate(-226.737 -58.337)"/></g><g transform="translate(0.061 16.509)"><path class="b" d="M218.582,91.718c-.072-.1,4.415-3.583,10.021-7.789s10.21-7.539,10.282-7.444-4.414,3.583-10.022,7.79S218.653,91.814,218.582,91.718Z" transform="translate(-218.581 -76.484)"/></g><g transform="translate(35.904 19.687)"><path class="b" d="M258.99,80.067c.109-.051,2.578,5.011,5.515,11.3s5.232,11.436,5.124,11.487-2.578-5.009-5.516-11.3S258.881,80.118,258.99,80.067Z" transform="translate(-258.986 -80.067)"/></g></g><g transform="translate(254.389 31.964)"><g transform="translate(0 0)"><rect class="c" width="36.967" height="24.917" transform="matrix(0.919, -0.395, 0.395, 0.919, 0, 14.595)"/></g><g transform="translate(0.227 0.228)"><path class="b" d="M554.757,66.946a2.5,2.5,0,0,1-.185.441c-.149.311-.345.721-.59,1.235l-2.226,4.518c-1.924,3.831-4.557,9.076-7.473,14.884l-.062.123-.132-.037-.321-.088L527.5,83.507,522.585,82.1l-1.333-.4a2.616,2.616,0,0,1-.459-.161,2.7,2.7,0,0,1,.477.1l1.349.338,4.946,1.3L543.857,87.7l.321.089-.194.086,7.562-14.84,2.32-4.47.646-1.206A2.646,2.646,0,0,1,554.757,66.946Z" transform="translate(-520.793 -66.946)"/></g><g transform="translate(10.06 18.895)"><path class="b" d="M531.882,106.81c-.089-.027,1.117-4.262,2.692-9.459s2.926-9.39,3.014-9.363-1.117,4.262-2.693,9.46S531.971,106.837,531.882,106.81Z" transform="translate(-531.878 -87.988)"/></g><g transform="translate(26.937 13.754)"><path class="b" d="M550.9,82.2c.044-.081,3.907,1.95,8.626,4.535s8.51,4.749,8.465,4.83-3.906-1.949-8.626-4.536S550.86,82.277,550.9,82.2Z" transform="translate(-550.904 -82.193)"/></g></g></g><g transform="translate(523.915 206.009)"><g transform="translate(3.116 88.777)"><path class="d" d="M607.191,327.218a28.092,28.092,0,0,0-12.017-4.137c-1.964-.2-4.11-.145-5.685,1.045a1.168,1.168,0,0,0-.585,1.038,1.267,1.267,0,0,0,.555.711,17.183,17.183,0,0,0,17.732,1.343" transform="translate(-588.893 -322.992)"/></g><g transform="translate(8.333 73.823)"><path class="d" d="M607.546,324.974a58.65,58.65,0,0,1-7.762-6.829,19.634,19.634,0,0,1-4.866-9,3.627,3.627,0,0,1,.384-3.012c6.187,4.832,11.048,11.081,12.244,18.84" transform="translate(-594.774 -306.134)"/></g><g transform="translate(20.956 74.357)"><path class="d" d="M609.4,325.336a28.059,28.059,0,0,1,.144-10.191,13.777,13.777,0,0,1,5.428-8.409c1.07,2.5.609,5.378-.144,7.989a38.827,38.827,0,0,1-5.382,11.333" transform="translate(-609.003 -306.736)"/></g><g transform="translate(12.265 103.825)"><path class="d" d="M614.357,339.955a17.758,17.758,0,0,0-9.637,4.877,18.232,18.232,0,0,0-5.513,9.464c3.611-.224,6.675-2.77,8.9-5.626s3.762-5.989,6.2-8.66" transform="translate(-599.206 -339.955)"/></g><g transform="translate(27.076 83.078)"><path class="d" d="M617.559,339.052a23.769,23.769,0,0,1,2.745-22.484c2.1,7.461,1.328,15.89-2.745,22.484" transform="translate(-615.902 -316.568)"/></g><g transform="translate(20.063 115.073)"><path class="d" d="M624.68,352.667a17.192,17.192,0,0,0-16.435,9.461c-.2.407-.383.924-.11,1.289a1.22,1.22,0,0,0,1.089.32c3.239-.209,6.109-2.158,8.479-4.378s4.432-4.782,7.05-6.7" transform="translate(-607.996 -352.635)"/></g><g transform="translate(35.115 91.813)"><path class="d" d="M626.341,349.187a30.614,30.614,0,0,1-.306-17.1c.6-2.2,1.615-4.518,3.649-5.551a.714.714,0,0,1,.558-.1.735.735,0,0,1,.353.409,10.3,10.3,0,0,1,.86,4.9,30.688,30.688,0,0,1-.769,4.966c-.64,3.036-.982,6.3-2.646,8.914a18.029,18.029,0,0,0-1.058,1.958c-.316.665-.318.9-.607,1.429" transform="translate(-624.965 -326.414)"/></g><g transform="translate(57.115 98.911)"><path class="d" d="M650.354,353.251a22.047,22.047,0,0,1,3.864-18.127c.278-.36.645-.747,1.1-.705.694.064.874.988.843,1.685a32.745,32.745,0,0,1-5.805,17.147" transform="translate(-649.765 -334.416)"/></g><g transform="translate(59.617 112.786)"><path class="d" d="M652.585,356.324a26.364,26.364,0,0,0,21.637-4.4,17.519,17.519,0,0,0-11.713-1.437c-3.912.9-7.488,2.648-9.924,5.838" transform="translate(-652.585 -350.057)"/></g><g transform="translate(61.23 103.718)"><path class="d" d="M654.4,351.19a25,25,0,0,1,19.636-11.355,12.094,12.094,0,0,1-6.422,7.1,35.666,35.666,0,0,1-9.426,2.756c-1.254.244-2.975.512-3.788,1.5" transform="translate(-654.404 -339.835)"/></g><g transform="translate(55.287 72.881)"><path class="d" d="M650.526,327.949a57.037,57.037,0,0,0,2.511-11.5,19.15,19.15,0,0,0-2.29-11.376,25.041,25.041,0,0,0-.334,23.271" transform="translate(-647.705 -305.073)"/></g><g transform="translate(70.901 73.861)"><path class="d" d="M665.306,321.608c4.443-8.076,13.509-14.527,22.683-15.431-3.539,8.811-13.189,15.621-22.683,15.431" transform="translate(-665.306 -306.177)"/></g><g transform="translate(68.106 89.549)"><path class="d" d="M662.155,325.187c6.627,1.009,12.273,5.242,18.466,7.808a8.28,8.28,0,0,0,4.175.8,3.268,3.268,0,0,0,2.047-5.781,8.936,8.936,0,0,0-3.033-1.839c-6.745-2.808-13.979-2.879-21.083-1.175" transform="translate(-662.155 -323.863)"/></g><g transform="translate(64.271 95.202)"><path class="d" d="M657.832,330.555c1.5.429,2.013,1.206,3.2,2.218a34.53,34.53,0,0,0,14,7.193c.535.133,1.237.186,1.5-.3.231-.422-.062-.933-.363-1.309a19.274,19.274,0,0,0-8.455-5.739c-3.232-1.2-6.031-2.654-9.888-2.343" transform="translate(-657.832 -330.235)"/></g><g transform="translate(59.943 66.733)"><path class="d" d="M652.953,298.859a26.5,26.5,0,0,0,20.318,6.913,1.4,1.4,0,0,0,.925-.332c.511-.556-.1-1.416-.7-1.88-5.974-4.657-13.209-6.588-20.545-4.7" transform="translate(-652.953 -298.142)"/></g><g transform="translate(65.074 60.055)"><path class="d" d="M658.737,296.132a28.318,28.318,0,0,1,25.353-4.184,20.131,20.131,0,0,1-12.081,5.3,38.247,38.247,0,0,1-13.272-1.12" transform="translate(-658.737 -290.614)"/></g><g transform="translate(59.611 34.742)"><path class="d" d="M656,280.01c-.587-5.962-.207-10.669-.62-16.659-.033-.479-.136-1.055-.584-1.227-.624-.24-1.143.526-1.347,1.162a19.1,19.1,0,0,0,2.542,16.592" transform="translate(-652.578 -262.079)"/></g><g transform="translate(62.606 34.588)"><path class="d" d="M655.955,280.649a35.059,35.059,0,0,0,9.876-9.6c1.951-2.669,3.6-5.867,3.153-9.143a9.454,9.454,0,0,0-7.124,3.538,19.868,19.868,0,0,0-3.632,7.307c-.791,2.624-1.345,5.32-2.273,7.9" transform="translate(-655.955 -261.905)"/></g><g transform="translate(72.183 35.702)"><path class="d" d="M666.878,278.1a79.634,79.634,0,0,0,24.305-14.332c-2.9-1.17-6.227-.47-9.13.7a28.79,28.79,0,0,0-15.3,13.565" transform="translate(-666.751 -263.162)"/></g><g transform="translate(65.335 49.563)"><path class="d" d="M659.031,285.816a49.445,49.445,0,0,0,13.5.067,57.311,57.311,0,0,0,12.6-4.187,1.478,1.478,0,0,0,.856-.649.987.987,0,0,0-.307-1.079,2.6,2.6,0,0,0-1.074-.5,23.324,23.324,0,0,0-13.616.813,63.161,63.161,0,0,0-11.954,5.538" transform="translate(-659.031 -278.787)"/></g><g transform="translate(37.466 47.896)"><path class="d" d="M629.864,296.665a23.871,23.871,0,0,1-.218-19.758c1.861,2.836,2.089,6.448,1.748,9.824s-1.368,6.85-1.434,10.241" transform="translate(-627.615 -276.907)"/></g><g transform="translate(7.008 61.481)"><path class="d" d="M613.758,292.226a27.559,27.559,0,0,0-20.478,8.724,19.131,19.131,0,0,0,11.213-2.079,57.077,57.077,0,0,0,9.61-6.431" transform="translate(-593.28 -292.222)"/></g><g transform="translate(0 58.376)"><path class="d" d="M604.644,289.082c-3.739-.3-7.336-.766-10.932.335a13.115,13.115,0,0,0-8.332,7.065,19.749,19.749,0,0,0,10.249-1.936,58.955,58.955,0,0,0,9.015-5.465" transform="translate(-585.38 -288.722)"/></g><g transform="translate(9.518 53.122)"><path class="d" d="M618.029,288.539c-3.364-2.2-6.818-4.449-10.734-5.362s-8.455-.239-11.185,2.714c3.17,1.86,7.017,2.08,10.692,2.078s8.182-.045,11.647,1.182" transform="translate(-596.109 -282.799)"/></g><g transform="translate(24.931 35.53)"><path class="d" d="M620.01,286.478c-5.75-5.647-7.93-15.79-5.616-23.51a35.824,35.824,0,0,1,5.616,23.51" transform="translate(-613.484 -262.967)"/></g><g transform="translate(47.269 24.487)"><path class="d" d="M638.666,269.072c1.084-2.52,1.847-5.167,2.82-7.733a22.233,22.233,0,0,1,4.02-7.13,10.587,10.587,0,0,1,7.122-3.691,28.687,28.687,0,0,1-13.822,18.594" transform="translate(-638.666 -250.519)"/></g><g transform="translate(29.533 36.241)"><path class="d" d="M633.547,273.9c-1.795-2.471-3.868-5.824-6.3-7.668s-5.6-2.959-8.573-2.251a19.969,19.969,0,0,0,14.875,9.919" transform="translate(-618.672 -263.769)"/></g><g transform="translate(41.936 24.719)"><path class="d" d="M635.7,269.308a42.633,42.633,0,0,1-2.836-9.187,14.328,14.328,0,0,1,1.438-9.341c3.156,5.967,4.173,12.371,1.56,18.6" transform="translate(-632.654 -250.78)"/></g><g transform="translate(47.298 12.073)"><path class="d" d="M638.7,249.17c1.788-5.915,7.2-10.27,13.052-12.268a4.875,4.875,0,0,1,2.289-.343,1.986,1.986,0,0,1,1.686,1.408c.214,1.006-.617,1.908-1.4,2.576A44.428,44.428,0,0,1,638.7,249.17" transform="translate(-638.698 -236.525)"/></g><g transform="translate(47.269)"><path class="d" d="M638.759,242.8c.228-3.814.466-7.683,1.706-11.3s3.631-7,7.109-8.585c.592,3.852-1.108,7.684-3.157,11s-4.52,6.443-5.751,10.14" transform="translate(-638.666 -222.915)"/></g><g transform="translate(36.178 1.771)"><path class="d" d="M637.254,245.647c-1.478-4.31-1.63-9.786-4.212-13.541-1.8-2.625-4.695-4.414-6.249-7.194a10.943,10.943,0,0,0,.364,8.167,23.616,23.616,0,0,0,4.775,6.837c1.91,2.04,3.546,3.575,5.322,5.732" transform="translate(-626.163 -224.911)"/></g><g transform="translate(47.075 21.004)"><path class="e" d="M638.67,375.044c-.114,0-.214-28.757-.222-64.222s.078-64.229.193-64.229.214,28.75.222,64.229S638.785,375.044,638.67,375.044Z" transform="translate(-638.448 -246.593)"/></g><g transform="translate(47.261 63.31)"><path class="d" d="M663.824,294.288a6.148,6.148,0,0,1-1.08.405l-2.976,1c-2.509.854-5.955,2.093-9.7,3.626-3.7,1.589-7.2,2.879-9.187,4.6a6.74,6.74,0,0,0-1.845,2.442c-.286.675-.336,1.088-.374,1.081a.825.825,0,0,1,.012-.3,4.542,4.542,0,0,1,.211-.837,6.486,6.486,0,0,1,1.8-2.6,16.17,16.17,0,0,1,3.987-2.476c1.594-.744,3.361-1.52,5.237-2.291,3.752-1.537,7.225-2.735,9.763-3.52,1.268-.4,2.3-.687,3.02-.88A6.067,6.067,0,0,1,663.824,294.288Z" transform="translate(-638.657 -294.283)"/></g><g transform="translate(49.239 43.081)"><path class="e" d="M672.313,271.48a1.777,1.777,0,0,1-.3.324l-.923.867-3.445,3.129-11.466,10.209c-4.476,3.984-8.344,7.79-11.025,10.658-1.342,1.431-2.4,2.617-3.12,3.445l-.834.952a1.739,1.739,0,0,1-.31.315,1.772,1.772,0,0,1,.246-.368c.174-.231.428-.576.774-1,.684-.861,1.709-2.079,3.028-3.54A145.192,145.192,0,0,1,655.9,285.7c4.49-3.975,8.578-7.546,11.548-10.12l3.532-3.03.974-.808A1.744,1.744,0,0,1,672.313,271.48Z" transform="translate(-640.887 -271.479)"/></g><g transform="translate(59.687 51.706)"><path class="d" d="M652.675,291.158c-.117-.052.818-2.211,1.749-4.942s1.383-5.033,1.5-5.014a16.866,16.866,0,0,1-1.108,5.148,33.388,33.388,0,0,1-1.393,3.455A5.39,5.39,0,0,1,652.675,291.158Z" transform="translate(-652.665 -281.202)"/></g><g transform="translate(30.656 58.068)"><path class="e" d="M636.606,309.373a5.133,5.133,0,0,1-.69-.8l-1.766-2.266c-1.484-1.918-3.536-4.566-5.836-7.464s-4.414-5.5-5.946-7.379l-1.805-2.235a5.005,5.005,0,0,1-.623-.853,5.266,5.266,0,0,1,.746.749c.46.5,1.112,1.234,1.907,2.151,1.591,1.834,3.743,4.407,6.046,7.309s4.32,5.582,5.746,7.546c.712.983,1.28,1.785,1.661,2.346A5.186,5.186,0,0,1,636.606,309.373Z" transform="translate(-619.938 -288.374)"/></g><g transform="translate(38.954 63.3)"><path class="d" d="M632.153,302.965a10.125,10.125,0,0,1-2.309-4.322,12.347,12.347,0,0,1-.523-4.357l.184.014c-.082.334-.142.509-.175.5s-.035-.191-.007-.533l.184.015a19.86,19.86,0,0,0,.736,4.238A32.223,32.223,0,0,0,632.153,302.965Z" transform="translate(-629.293 -294.272)"/></g><g transform="translate(22.254 61.278)"><path class="d" d="M622.913,293.759a7.43,7.43,0,0,0-1.611-.936,10.77,10.77,0,0,0-4.475-.356,27.718,27.718,0,0,0-4.505.726,13.605,13.605,0,0,1-1.854.445,6.466,6.466,0,0,1,1.775-.728,20.648,20.648,0,0,1,4.553-.859,9.777,9.777,0,0,1,4.616.5A2.857,2.857,0,0,1,622.913,293.759Z" transform="translate(-610.466 -291.993)"/></g><g transform="translate(15.525 58.233)"><path class="d" d="M620.371,291.2c-.032.065-.939-.377-2.47-.9a24.857,24.857,0,0,0-12.443-.948c-1.592.285-2.556.583-2.577.514a2.342,2.342,0,0,1,.655-.279,15.444,15.444,0,0,1,1.865-.523,21.947,21.947,0,0,1,12.6.961,15.359,15.359,0,0,1,1.764.8A2.366,2.366,0,0,1,620.371,291.2Z" transform="translate(-602.881 -288.56)"/></g><g transform="translate(44.058 39.093)"><path class="d" d="M638.257,279.6a50.9,50.9,0,0,1-1.8-6.255,51.2,51.2,0,0,1-1.4-6.358,51.228,51.228,0,0,1,1.8,6.255A51.126,51.126,0,0,1,638.257,279.6Z" transform="translate(-635.046 -266.984)"/></g><g transform="translate(42.449 44.923)"><path class="d" d="M638.167,280.339a30.03,30.03,0,0,0-2-3.745,16.477,16.477,0,0,0-2.937-3.031,2.737,2.737,0,0,1,1.134.585,9.152,9.152,0,0,1,2.144,2.208A8.3,8.3,0,0,1,638.167,280.339Z" transform="translate(-633.232 -273.556)"/></g><g transform="translate(20.953 92.153)"><path class="e" d="M635.345,368.771c-.044.007-.129-.691-.453-1.913a27.236,27.236,0,0,0-1.921-4.978,68.918,68.918,0,0,0-10.2-14.365c-2.276-2.6-4.484-5.055-6.359-7.4a52.025,52.025,0,0,1-4.548-6.558,31.466,31.466,0,0,1-2.295-4.867c-.211-.6-.366-1.068-.451-1.393a2.382,2.382,0,0,1-.119-.5c.037-.012.247.657.72,1.83a35.7,35.7,0,0,0,2.4,4.777,55.006,55.006,0,0,0,4.592,6.466c1.881,2.325,4.093,4.765,6.374,7.371a65.3,65.3,0,0,1,10.147,14.51,24.785,24.785,0,0,1,1.814,5.067,14.18,14.18,0,0,1,.255,1.442A2.239,2.239,0,0,1,635.345,368.771Z" transform="translate(-609 -326.798)"/></g><g transform="translate(47.295 108.474)"><path class="d" d="M661.406,345.2a10.521,10.521,0,0,1-1.19.668,25.932,25.932,0,0,0-3.087,2.04,35.408,35.408,0,0,0-4.054,3.7c-1.423,1.5-2.889,3.249-4.385,5.119-2.991,3.752-5.788,7.074-7.464,9.724-.85,1.315-1.468,2.424-1.874,3.2a10.117,10.117,0,0,1-.656,1.2,1.2,1.2,0,0,1,.111-.338c.089-.214.208-.535.4-.932a30.447,30.447,0,0,1,1.771-3.286,107.309,107.309,0,0,1,7.388-9.828c1.5-1.874,2.983-3.623,4.433-5.124a32.936,32.936,0,0,1,4.154-3.668,21.765,21.765,0,0,1,3.188-1.949c.395-.2.717-.319.929-.411A1.126,1.126,0,0,1,661.406,345.2Z" transform="translate(-638.695 -345.196)"/></g><g transform="translate(54.757 116.767)"><path class="d" d="M662.8,354.575a17.331,17.331,0,0,1-2.515.365,33.19,33.19,0,0,0-5.967,1.174,17.934,17.934,0,0,0-5.341,2.8c-1.231.951-1.812,1.738-1.869,1.693a1.9,1.9,0,0,1,.372-.579,9.49,9.49,0,0,1,1.31-1.341,16.165,16.165,0,0,1,5.4-2.971,26.943,26.943,0,0,1,6.064-1.073A13.846,13.846,0,0,1,662.8,354.575Z" transform="translate(-647.107 -354.544)"/></g><g transform="translate(55.482 113.397)"><path class="d" d="M647.935,359.268c-.131-.075,1-1.806,1.882-4.135.825-2.351,1.018-4.411,1.167-4.388a3.989,3.989,0,0,1-.043,1.349,14.437,14.437,0,0,1-.734,3.18,15.376,15.376,0,0,1-1.458,2.916A4.039,4.039,0,0,1,647.935,359.268Z" transform="translate(-647.924 -350.746)"/></g><g transform="translate(47.305 86.135)"><path class="d" d="M668.762,320.016a1.876,1.876,0,0,1-.4.214l-1.182.538c-.518.222-1.147.5-1.855.877s-1.54.744-2.4,1.263l-1.372.78c-.476.274-.947.6-1.448.912-1.012.614-2.025,1.37-3.107,2.141a53.334,53.334,0,0,0-11.965,12.382c-.735,1.108-1.456,2.147-2.034,3.178-.3.512-.605.994-.862,1.478s-.5.952-.733,1.4c-.489.881-.838,1.723-1.18,2.446s-.609,1.358-.813,1.883l-.5,1.2a1.891,1.891,0,0,1-.2.41,1.864,1.864,0,0,1,.121-.438l.424-1.229c.182-.536.421-1.185.751-1.918s.655-1.59,1.13-2.484l.713-1.419c.252-.492.555-.981.847-1.5.57-1.047,1.285-2.1,2.016-3.222a51.358,51.358,0,0,1,12.053-12.472c1.1-.769,2.125-1.519,3.151-2.125.508-.31.986-.629,1.469-.9l1.394-.761c.877-.5,1.72-.867,2.444-1.215s1.362-.616,1.891-.816l1.215-.466A1.841,1.841,0,0,1,668.762,320.016Z" transform="translate(-638.706 -320.013)"/></g><g transform="translate(59.385 95.176)"><path class="d" d="M652.328,333.209a2.888,2.888,0,0,1,.988-1.472,6.24,6.24,0,0,1,3.982-1.528,10.906,10.906,0,0,1,4.19.819,5.936,5.936,0,0,1,1.584.77,9.7,9.7,0,0,1-1.681-.492,12.637,12.637,0,0,0-4.08-.68,6.477,6.477,0,0,0-3.8,1.335A11.608,11.608,0,0,0,652.328,333.209Z" transform="translate(-652.323 -330.206)"/></g><g transform="translate(56.694 93.431)"><path class="d" d="M649.3,335.758a10.638,10.638,0,0,0,.877-7.519,2.45,2.45,0,0,1,.467,1.072,7.6,7.6,0,0,1-.643,5.512C649.649,335.458,649.339,335.786,649.3,335.758Z" transform="translate(-649.29 -328.238)"/></g><g transform="translate(27.437 138.246)"><path class="f" d="M616.309,378.758c.62,10.99,3.932,22.167,9.025,33.466h22.151c4.859-11.188,7.941-22.348,8.489-33.466Z" transform="translate(-616.309 -378.758)"/></g><g transform="translate(30.935 155.821)"><path class="g" d="M652.829,398.779c0,.114-7.294.208-16.288.208s-16.29-.093-16.29-.208,7.292-.208,16.29-.208S652.829,398.663,652.829,398.779Z" transform="translate(-620.252 -398.57)"/></g><g transform="translate(32.476 159.803)"><path class="g" d="M652.531,403.267c0,.114-6.838.208-15.269.208s-15.271-.093-15.271-.208,6.836-.208,15.271-.208S652.531,403.152,652.531,403.267Z" transform="translate(-621.99 -403.059)"/></g></g><g transform="translate(147.332 146.917)"><g transform="translate(0 0)"><g transform="translate(13.331)"><rect class="f" width="341.1" height="225.566" rx="14.567"/></g><g transform="translate(0 210.998)"><path class="f" d="M0,0H369.556a0,0,0,0,1,0,0V1.939a17.8,17.8,0,0,1-17.8,17.8H17.8A17.8,17.8,0,0,1,0,1.939V0A0,0,0,0,1,0,0Z"/></g><g transform="translate(22.487 8.962)"><rect class="h" width="321.834" height="190.487"/></g><g transform="translate(150.255 208.883)"><path class="h" d="M330.245,391.773l4.586,7.294H399.36l4.258-7.294Z" transform="translate(-330.245 -391.773)"/></g><g transform="translate(28.785 15.41)"><g transform="translate(0.331)"><path class="a" d="M3.272,0H305.965a3.273,3.273,0,0,1,3.273,3.273V180.156a3.273,3.273,0,0,1-3.273,3.273H3.272A3.272,3.272,0,0,1,0,180.157V3.272A3.272,3.272,0,0,1,3.272,0Z"/></g><g transform="translate(0 13.708)"><path class="g" d="M502.551,359.116H193.313l.331-169.989H502.551Z" transform="translate(-193.313 -189.127)"/></g><g transform="translate(20.754 4.615)"><path class="h" d="M221.647,181.346a2.469,2.469,0,1,1-2.47-2.47A2.47,2.47,0,0,1,221.647,181.346Z" transform="translate(-216.709 -178.876)"/></g><g transform="translate(5.786 4.615)"><path class="h" d="M204.774,181.346a2.47,2.47,0,1,1-2.47-2.47A2.47,2.47,0,0,1,204.774,181.346Z" transform="translate(-199.835 -178.876)"/></g><g transform="translate(12.97 4.615)"><path class="h" d="M212.873,181.346a2.47,2.47,0,1,1-2.47-2.47A2.47,2.47,0,0,1,212.873,181.346Z" transform="translate(-207.934 -178.876)"/></g></g><g transform="translate(13.331 208.662)"><path class="h" d="M514.06,391.744c0,.122-75.708.222-169.076.222-93.4,0-169.092-.1-169.092-.222s75.692-.22,169.092-.22C438.353,391.524,514.06,391.622,514.06,391.744Z" transform="translate(-175.892 -391.524)"/></g><g transform="translate(127.356 45.687)"><g transform="translate(0.002 48.66)"><path class="d" d="M305.214,263.834l125.811-1.176,3.685,85.53-130.277-.937Z" transform="translate(-304.433 -262.659)"/></g><g transform="translate(0.783)"><path class="d" d="M305.314,257.641l59.444-48.3a6.838,6.838,0,0,1,8.637.01l57.73,47.119" transform="translate(-305.314 -207.805)"/></g><g class="i" transform="translate(0.783)"><path d="M305.314,257.641l59.444-48.3a6.838,6.838,0,0,1,8.637.01l57.73,47.119" transform="translate(-305.314 -207.805)"/></g><g transform="translate(0 84.567)"><path class="h" d="M304.433,351.822c-.157-.147,9.892-11.165,22.443-24.607s22.857-24.224,23.014-24.077S340,314.3,327.446,327.747,304.59,351.968,304.433,351.822Z" transform="translate(-304.431 -303.136)"/></g><g transform="translate(86.944 85.631)"><path class="h" d="M445.776,352.894c-.161.143-9.992-10.611-21.956-24.018s-21.537-24.4-21.376-24.539,9.989,10.61,21.958,24.021S445.937,352.751,445.776,352.894Z" transform="translate(-402.442 -304.335)"/></g><g class="j" transform="translate(0.783 48.66)"><path d="M431.125,262.659l-63.072,50.6-62.739-49.425" transform="translate(-305.314 -262.659)"/></g><g transform="translate(6.701 13.438)"><g transform="translate(0.15 0.233)"><path class="g" d="M312.432,264.041l-.278-39.294,110.163-1.531,1.328,41.341-54.826,43.588Z" transform="translate(-312.154 -223.216)"/></g><path class="h" d="M312.413,264.011s.364.263,1.045.785l3,2.316,11.4,8.855,41.052,32h-.235l54.8-43.618-.086.185c-.255-7.887-.521-16.161-.792-24.58-.182-5.668-.361-11.27-.538-16.761l.233.223-110.164,1.449.146-.149c.057,12.354.1,22.165.132,28.9.007,3.361.012,5.953.016,7.718q0,1.305,0,1.994c0,.449-.014.682-.014.682s-.014-.221-.023-.664-.019-1.114-.033-1.978c-.021-1.76-.052-4.345-.093-7.7-.065-6.747-.159-16.575-.277-28.952l0-.147.148,0,110.161-1.613.225,0,.007.225c.177,5.492.357,11.093.539,16.761.27,8.42.535,16.694.787,24.581l0,.114-.09.072-54.85,43.557-.117.093-.117-.092-41-32.179-11.321-8.92-2.955-2.344C312.742,264.29,312.413,264.011,312.413,264.011Z" transform="translate(-311.985 -222.953)"/></g><g transform="translate(24.388 33.414)"><path class="h" d="M407.179,245.549c0,.128-16.846.368-37.624.538s-37.63.2-37.632.075,16.843-.368,37.628-.538S407.178,245.421,407.179,245.549Z" transform="translate(-331.923 -245.472)"/></g><g transform="translate(24.411 44.513)"><path class="h" d="M407.205,258.061c0,.128-16.846.368-37.624.538s-37.63.2-37.632.075,16.843-.368,37.628-.538S407.2,257.933,407.205,258.061Z" transform="translate(-331.949 -257.984)"/></g><g transform="translate(24.438 57.306)"><path class="h" d="M407.235,272.482c0,.128-16.846.368-37.624.538s-37.63.2-37.632.075,16.843-.368,37.628-.538S407.234,272.354,407.235,272.482Z" transform="translate(-331.979 -272.405)"/></g><g transform="translate(27.924 70.096)"><path class="h" d="M407.705,286.9c0,.128-16.071.362-35.9.523s-35.9.19-35.9.062,16.068-.362,35.9-.523S407.7,286.775,407.705,286.9Z" transform="translate(-335.909 -286.823)"/></g><g transform="translate(42.217 81.328)"><path class="h" d="M395.457,299.591a1.611,1.611,0,0,1-.441.051l-1.265.054-4.654.116-15.354.279c-6,.113-11.43.148-15.361.144l-4.655-.03-1.266-.033a1.6,1.6,0,0,1-.441-.043,1.616,1.616,0,0,1,.441-.051l1.265-.054,4.654-.116,15.355-.279c6-.113,11.427-.148,15.358-.144l4.655.031,1.267.032A1.6,1.6,0,0,1,395.457,299.591Z" transform="translate(-352.021 -299.485)"/></g><g transform="translate(55.447 92.042)"><path class="h" d="M382.983,311.778a70.262,70.262,0,0,1-8.023.247,69.876,69.876,0,0,1-8.024-.215,69.767,69.767,0,0,1,8.023-.247A69.877,69.877,0,0,1,382.983,311.778Z" transform="translate(-366.936 -311.562)"/></g></g></g></g><g transform="translate(41.02 376.665)"><path class="h" d="M633.559,415.525c0,.127-132.655.231-296.255.231-163.657,0-296.284-.1-296.284-.231s132.627-.232,296.284-.232C500.9,415.293,633.559,415.4,633.559,415.525Z" transform="translate(-41.02 -415.293)"/></g><g transform="translate(162.325 122.158)"><g transform="translate(0 60.05)"><g transform="translate(0 77.817)"><path class="h" d="M401.712,222.825c.127.013.181.518.121,1.127s-.212,1.093-.339,1.081-.181-.516-.121-1.128S401.585,222.812,401.712,222.825Z" transform="translate(-401.348 -222.825)"/></g><g transform="translate(0.816 69.177)"><path class="h" d="M403,213.085a10.407,10.407,0,0,1-.657,4.311,10.405,10.405,0,0,1,.657-4.311Z" transform="translate(-402.268 -213.085)"/></g><g transform="translate(2.291 60.632)"><path class="h" d="M404.927,203.453a10.394,10.394,0,0,1-.945,4.257,10.4,10.4,0,0,1,.945-4.257Z" transform="translate(-403.931 -203.452)"/></g><g transform="translate(4.349 52.237)"><path class="h" d="M407.552,193.99a10.4,10.4,0,0,1-1.262,4.175,10.427,10.427,0,0,1,1.262-4.175Z" transform="translate(-406.251 -193.989)"/></g><g transform="translate(7.055 44.064)"><path class="h" d="M410.941,184.778a10.388,10.388,0,0,1-1.612,4.053,10.438,10.438,0,0,1,1.612-4.053Z" transform="translate(-409.301 -184.776)"/></g><g transform="translate(10.468 36.214)"><path class="h" d="M415.154,175.93a10.386,10.386,0,0,1-1.983,3.878,5.308,5.308,0,0,1,.786-2.045C414.506,176.689,415.042,175.867,415.154,175.93Z" transform="translate(-413.148 -175.926)"/></g><g transform="translate(14.636 28.78)"><path class="h" d="M420.245,167.55a5.394,5.394,0,0,1-1.022,1.938c-.641,1.016-1.25,1.786-1.359,1.719a5.348,5.348,0,0,1,.972-1.971C419.508,168.232,420.141,167.478,420.245,167.55Z" transform="translate(-417.847 -167.546)"/></g><g transform="translate(19.608 21.912)"><path class="h" d="M426.25,159.81c.1.085-.449.9-1.215,1.825s-1.47,1.608-1.571,1.53.444-.9,1.215-1.825S426.155,159.726,426.25,159.81Z" transform="translate(-423.451 -159.803)"/></g><g transform="translate(25.377 15.726)"><path class="h" d="M433.131,152.841c.084.1-.554.842-1.425,1.667s-1.651,1.421-1.742,1.332.546-.836,1.425-1.667S433.047,152.745,433.131,152.841Z" transform="translate(-429.955 -152.831)"/></g><g transform="translate(31.892 10.347)"><path class="h" d="M440.823,146.781c.071.106-.655.766-1.622,1.475a5.4,5.4,0,0,1-1.9,1.1c-.079-.1.648-.76,1.622-1.475A5.333,5.333,0,0,1,440.823,146.781Z" transform="translate(-437.299 -146.767)"/></g><g transform="translate(39.094 5.926)"><path class="h" d="M449.257,141.8c.057.114-.753.671-1.808,1.242a5.38,5.38,0,0,1-2.028.836c-.066-.109.744-.665,1.808-1.242A5.328,5.328,0,0,1,449.257,141.8Z" transform="translate(-445.418 -141.783)"/></g><g transform="translate(46.906 2.631)"><path class="h" d="M458.326,138.1a10.423,10.423,0,0,1-4.1,1.489,10.423,10.423,0,0,1,4.1-1.489Z" transform="translate(-454.225 -138.069)"/></g><g transform="translate(55.209 0.621)"><path class="h" d="M467.869,135.87a5.433,5.433,0,0,1-2.107.589,5.343,5.343,0,0,1-2.177.224,5.35,5.35,0,0,1,2.091-.679A5.267,5.267,0,0,1,467.869,135.87Z" transform="translate(-463.584 -135.803)"/></g><g transform="translate(63.833)"><path class="h" d="M477.667,135.311a10.4,10.4,0,0,1-4.361.049,10.4,10.4,0,0,1,4.361-.049Z" transform="translate(-473.306 -135.103)"/></g><g transform="translate(72.542 0.464)"><path class="h" d="M487.429,136.39a10.409,10.409,0,0,1-4.305-.7,10.41,10.41,0,0,1,4.305.7Z" transform="translate(-483.124 -135.625)"/></g><g transform="translate(81.076 2.257)"><path class="h" d="M496.865,139.11a10.392,10.392,0,0,1-4.12-1.429,10.414,10.414,0,0,1,4.12,1.429Z" transform="translate(-492.744 -137.647)"/></g><g transform="translate(89.168 5.497)"><path class="h" d="M505.656,143.479a5.4,5.4,0,0,1-2.008-.88c-1.04-.593-1.836-1.167-1.779-1.281a5.287,5.287,0,0,1,2.008.88C504.929,142.8,505.726,143.372,505.656,143.479Z" transform="translate(-501.866 -141.299)"/></g><g transform="translate(96.507 10.186)"><path class="h" d="M513.424,149.472c-.09.09-.892-.475-1.792-1.264s-1.565-1.511-1.487-1.612.88.465,1.792,1.264S513.513,149.382,513.424,149.472Z" transform="translate(-510.139 -146.585)"/></g><g transform="translate(102.72 16.275)"><path class="h" d="M518.523,155.214c-.1.075-.489-.255-.861-.734s-.594-.937-.5-1.018.484.247.861.735S518.627,155.14,518.523,155.214Z" transform="translate(-517.143 -153.449)"/></g></g><g transform="translate(141.097 26.338)"><g transform="translate(0 103.309)"><path class="h" d="M564.432,215.449a10.784,10.784,0,0,1-4.024-1.868,10.731,10.731,0,0,1,4.024,1.868Z" transform="translate(-560.405 -213.558)"/></g><g transform="translate(8.159 106.782)"><path class="h" d="M573.844,218.8a10.756,10.756,0,0,1-4.24-1.3,10.755,10.755,0,0,1,4.24,1.3Z" transform="translate(-569.602 -217.473)"/></g><g transform="translate(16.741 108.933)"><path class="h" d="M583.685,220.475a10.771,10.771,0,0,1-4.408-.485,10.77,10.77,0,0,1,4.408.485Z" transform="translate(-579.277 -219.899)"/></g><g transform="translate(25.583 109.116)"><path class="h" d="M593.667,220.222a10.791,10.791,0,0,1-4.423.334,10.75,10.75,0,0,1,4.423-.334Z" transform="translate(-589.244 -220.105)"/></g><g transform="translate(34.389 107.555)"><path class="h" d="M603.5,218.39a5.516,5.516,0,0,1-2.105.752,5.331,5.331,0,0,1-2.222.216,5.733,5.733,0,0,1,2.124-.668A5.553,5.553,0,0,1,603.5,218.39Z" transform="translate(-599.172 -218.345)"/></g><g transform="translate(42.919 104.312)"><path class="h" d="M612.819,214.711a10.774,10.774,0,0,1-4.03,1.854,10.754,10.754,0,0,1,4.03-1.854Z" transform="translate(-608.787 -214.689)"/></g><g transform="translate(50.756 99.38)"><path class="h" d="M621.165,209.141c.082.1-.608.828-1.593,1.569a4.916,4.916,0,0,1-1.945,1.1c-.071-.108.7-.737,1.668-1.471A6.344,6.344,0,0,1,621.165,209.141Z" transform="translate(-617.622 -209.13)"/></g><g transform="translate(57.503 92.91)"><path class="h" d="M628.057,201.841a4.83,4.83,0,0,1-1.178,1.9c-.786.954-1.552,1.607-1.642,1.52s.512-.875,1.285-1.813S627.951,201.767,628.057,201.841Z" transform="translate(-625.227 -201.836)"/></g><g transform="translate(62.664 85.108)"><path class="h" d="M632.87,193.042a8.055,8.055,0,0,1-1.8,4.049,16.4,16.4,0,0,1,1.8-4.049Z" transform="translate(-631.045 -193.04)"/></g><g transform="translate(65.615 76.431)"><path class="h" d="M634.883,183.259a7.644,7.644,0,0,1-.452,4.408,7.011,7.011,0,0,1,.093-2.218A6.885,6.885,0,0,1,634.883,183.259Z" transform="translate(-634.371 -183.259)"/></g><g transform="translate(64.811 67.686)"><path class="h" d="M633.5,173.4a7.933,7.933,0,0,1,.985,4.321,16.831,16.831,0,0,1-.985-4.321Z" transform="translate(-633.466 -173.402)"/></g><g transform="translate(60.977 59.729)"><path class="h" d="M629.158,164.436c.1-.074.767.686,1.388,1.756a4.705,4.705,0,0,1,.842,2.074c-.117.056-.629-.793-1.241-1.842A6.729,6.729,0,0,1,629.158,164.436Z" transform="translate(-629.143 -164.431)"/></g><g transform="translate(54.831 53.392)"><path class="h" d="M622.22,157.3a4.562,4.562,0,0,1,1.89,1.2c.937.811,1.55,1.614,1.458,1.7s-.844-.557-1.761-1.349S622.146,157.409,622.22,157.3Z" transform="translate(-622.215 -157.288)"/></g><g transform="translate(46.792 49.753)"><path class="h" d="M613.153,153.237a7.191,7.191,0,0,1,4.209,1.385,7.357,7.357,0,0,1-2.14-.585A7.444,7.444,0,0,1,613.153,153.237Z" transform="translate(-613.152 -153.186)"/></g><g transform="translate(37.995 49.223)"><path class="h" d="M603.237,153.315a7.047,7.047,0,0,1,4.391-.577,23.482,23.482,0,0,1-4.391.577Z" transform="translate(-603.236 -152.589)"/></g><g transform="translate(30.341 51.534)"><path class="h" d="M594.618,157.89c-.093-.081.516-.906,1.517-1.658a4.163,4.163,0,0,1,2-1.02c.062.117-.763.659-1.723,1.388S594.715,157.979,594.618,157.89Z" transform="translate(-594.609 -155.193)"/></g><g transform="translate(26.745 57.9)"><path class="h" d="M590.65,166.66a4.073,4.073,0,0,1,.128-2.243,3.968,3.968,0,0,1,.931-2.045,9.234,9.234,0,0,1-.483,2.155A8.725,8.725,0,0,1,590.65,166.66Z" transform="translate(-590.555 -162.37)"/></g><g transform="translate(27.071 66.605)"><path class="h" d="M592.423,176.368a6.715,6.715,0,0,1-1.45-4.185,7.992,7.992,0,0,1,.806,2.064A7.9,7.9,0,0,1,592.423,176.368Z" transform="translate(-590.921 -172.182)"/></g><g transform="translate(31.047 74.443)"><path class="h" d="M598.727,183.964a4.425,4.425,0,0,1-1.893-1.2c-.934-.823-1.515-1.656-1.42-1.737s.818.592,1.726,1.391S598.8,183.856,598.727,183.964Z" transform="translate(-595.404 -181.019)"/></g><g transform="translate(38.228 79.537)"><path class="h" d="M607.692,188.22a4.639,4.639,0,0,1-2.2-.41,4.583,4.583,0,0,1-1.99-1.025,6.931,6.931,0,0,1,2.14.588A6.83,6.83,0,0,1,607.692,188.22Z" transform="translate(-603.499 -186.761)"/></g><g transform="translate(46.793 81.622)"><path class="h" d="M617.585,189.323a8.107,8.107,0,0,1-4.431-.094,16.072,16.072,0,0,1,4.431.094Z" transform="translate(-613.154 -189.111)"/></g><g transform="translate(55.623 80.188)"><path class="h" d="M627.4,187.531a8.291,8.291,0,0,1-4.293,1.093,15.392,15.392,0,0,1,4.293-1.093Z" transform="translate(-623.109 -187.495)"/></g><g transform="translate(64.041 76.519)"><path class="h" d="M636.519,183.378c.066.109-.762.664-1.852,1.24a5.458,5.458,0,0,1-2.067.832,10.753,10.753,0,0,1,3.919-2.072Z" transform="translate(-632.597 -183.359)"/></g><g transform="translate(71.64 71.243)"><path class="h" d="M644.6,177.422c.086.094-.616.8-1.568,1.585s-1.786,1.332-1.86,1.229.626-.813,1.568-1.585A5.584,5.584,0,0,1,644.6,177.422Z" transform="translate(-641.164 -177.411)"/></g><g transform="translate(78.224 64.764)"><path class="h" d="M651.477,170.113c.1.078-.466.9-1.265,1.835s-1.524,1.623-1.616,1.536a5.552,5.552,0,0,1,1.265-1.836C650.652,170.723,651.376,170.035,651.477,170.113Z" transform="translate(-648.586 -170.107)"/></g><g transform="translate(83.69 57.365)"><path class="h" d="M657.049,161.77a5.5,5.5,0,0,1-.945,2.02c-.634,1.055-1.235,1.852-1.34,1.781a5.57,5.57,0,0,1,.945-2.02C656.336,162.507,656.936,161.709,657.049,161.77Z" transform="translate(-654.747 -161.766)"/></g><g transform="translate(87.928 49.262)"><path class="h" d="M661.186,152.634a5.484,5.484,0,0,1-.594,2.15c-.439,1.149-.918,2.027-1.043,1.971a6.3,6.3,0,0,1,.614-2.142A5.569,5.569,0,0,1,661.186,152.634Z" transform="translate(-659.525 -152.632)"/></g><g transform="translate(90.914 40.751)"><path class="h" d="M664.046,143.039a10.757,10.757,0,0,1-1.112,4.293,10.756,10.756,0,0,1,1.112-4.293Z" transform="translate(-662.891 -143.038)"/></g><g transform="translate(92.88 32.021)"><path class="h" d="M665.849,133.2a10.757,10.757,0,0,1-.672,4.384,10.754,10.754,0,0,1,.672-4.384Z" transform="translate(-665.108 -133.197)"/></g><g transform="translate(93.991 23.189)"><path class="h" d="M666.807,123.241a10.765,10.765,0,0,1-.329,4.423,10.767,10.767,0,0,1,.329-4.423Z" transform="translate(-666.36 -123.241)"/></g><g transform="translate(94.442 14.326)"><path class="h" d="M667.147,113.249a10.793,10.793,0,0,1-.086,4.435,10.754,10.754,0,0,1,.086-4.435Z" transform="translate(-666.868 -113.249)"/></g><g transform="translate(94.455 5.456)"><path class="h" d="M667.083,103.25a5.508,5.508,0,0,1,.263,2.214,5.5,5.5,0,0,1-.2,2.22,5.531,5.531,0,0,1-.263-2.214A5.545,5.545,0,0,1,667.083,103.25Z" transform="translate(-666.883 -103.25)"/></g><g transform="translate(94.307)"><path class="h" d="M666.932,97.1c.128,0,.238.222.245.5s-.09.513-.217.515-.237-.222-.244-.5S666.806,97.1,666.932,97.1Z" transform="translate(-666.716 -97.1)"/></g></g><g transform="translate(194.736)"><rect class="d" width="60.654" height="40.883" transform="translate(0.024 6.572) rotate(-6.198)"/><path class="h" d="M625.289,114.649l0-.021-4.416-40.666.021,0,60.322-6.55,0,.021,4.417,40.666-.022,0ZM620.919,74l4.41,40.6,60.255-6.544-4.41-40.6Z" transform="translate(-620.871 -67.409)"/><g transform="translate(0.269 0.491)"><path class="h" d="M681.475,67.963a4.3,4.3,0,0,1-.5.6l-1.52,1.654-5.665,6.015L654.9,95.986l-.155.162-.191-.121-.46-.293-23.34-14.911-7.039-4.572-1.9-1.267a4.264,4.264,0,0,1-.641-.474,4.4,4.4,0,0,1,.7.38l1.953,1.18,7.133,4.424L654.39,95.27l.46.293-.346.041,19-19.637,5.792-5.9,1.593-1.582A4.144,4.144,0,0,1,681.475,67.963Z" transform="translate(-621.175 -67.962)"/></g><g transform="translate(4.681 20.905)"><path class="h" d="M626.151,117.754c-.127-.085,3.8-6.149,8.775-13.542s9.107-13.321,9.234-13.236-3.8,6.148-8.777,13.543S626.277,117.839,626.151,117.754Z" transform="translate(-626.148 -90.975)"/></g><g transform="translate(42.68 18.219)"><path class="h" d="M668.985,87.949c.108-.106,5.189,4.938,11.348,11.265s11.063,11.544,10.954,11.65S686.1,105.927,679.938,99.6,668.876,88.055,668.985,87.949Z" transform="translate(-668.983 -87.947)"/></g></g></g><g transform="translate(269.159 15.186)"><g transform="translate(18.288 33.236)"><g transform="translate(4.523 108.728)"><path class="h" d="M378.457,206.348c.126-.021.311.452.413,1.056s.083,1.112-.043,1.133-.31-.452-.413-1.056S378.332,206.369,378.457,206.348Z" transform="translate(-378.349 -206.347)"/></g><g transform="translate(3.143 100.073)"><path class="h" d="M376.861,196.591a10.508,10.508,0,0,1,.7,4.33,10.544,10.544,0,0,1-.7-4.33Z" transform="translate(-376.793 -196.591)"/></g><g transform="translate(1.868 91.395)"><path class="h" d="M375.433,186.808a10.519,10.519,0,0,1,.607,4.343,10.519,10.519,0,0,1-.607-4.343Z" transform="translate(-375.357 -186.808)"/></g><g transform="translate(0.852 82.682)"><path class="h" d="M374.306,176.986a10.5,10.5,0,0,1,.459,4.361,10.54,10.54,0,0,1-.459-4.361Z" transform="translate(-374.211 -176.986)"/></g><g transform="translate(0.2 73.934)"><path class="h" d="M373.614,167.124a10.5,10.5,0,0,1,.248,4.378,10.539,10.539,0,0,1-.248-4.378Z" transform="translate(-373.476 -167.124)"/></g><g transform="translate(0 65.161)"><path class="h" d="M373.495,157.235a10.532,10.532,0,0,1-.026,4.388,10.532,10.532,0,0,1,.026-4.388Z" transform="translate(-373.251 -157.235)"/></g><g transform="translate(0.319 56.414)"><path class="h" d="M374.086,147.374a10.52,10.52,0,0,1-.365,4.37,10.519,10.519,0,0,1,.365-4.37Z" transform="translate(-373.61 -147.374)"/></g><g transform="translate(1.288 47.744)"><path class="h" d="M375.53,137.6a10.529,10.529,0,0,1-.764,4.32,10.522,10.522,0,0,1,.764-4.32Z" transform="translate(-374.703 -137.6)"/></g><g transform="translate(3.062 39.268)"><path class="h" d="M377.991,128.047a10.525,10.525,0,0,1-1.25,4.2,10.525,10.525,0,0,1,1.25-4.2Z" transform="translate(-376.702 -128.046)"/></g><g transform="translate(5.837 31.137)"><path class="h" d="M381.624,118.883a10.531,10.531,0,0,1-1.767,4.013,10.533,10.533,0,0,1,1.767-4.013Z" transform="translate(-379.831 -118.88)"/></g><g transform="translate(9.628 23.483)"><path class="h" d="M386.385,110.256a5.443,5.443,0,0,1-.934,2c-.622,1.033-1.217,1.821-1.329,1.759a5.375,5.375,0,0,1,.933-2C385.682,110.974,386.277,110.186,386.385,110.256Z" transform="translate(-384.104 -110.252)"/></g><g transform="translate(14.403 16.468)"><path class="h" d="M392.251,102.351a5.439,5.439,0,0,1-1.2,1.852c-.757.939-1.453,1.638-1.556,1.563s.433-.906,1.2-1.853S392.155,102.267,392.251,102.351Z" transform="translate(-389.487 -102.344)"/></g><g transform="translate(20.155 10.302)"><path class="h" d="M399.215,95.4c.082.1-.573.837-1.463,1.65s-1.683,1.4-1.773,1.309.564-.829,1.462-1.65S399.133,95.305,399.215,95.4Z" transform="translate(-395.971 -95.393)"/></g><g transform="translate(26.865 5.257)"><path class="h" d="M407.237,89.723c.062.111-.71.727-1.724,1.374a5.465,5.465,0,0,1-1.973.985c-.075-.1.7-.719,1.725-1.374A5.328,5.328,0,0,1,407.237,89.723Z" transform="translate(-403.535 -89.705)"/></g><g transform="translate(34.468 1.648)"><path class="h" d="M416.192,85.667a10.521,10.521,0,0,1-4.084,1.6,10.521,10.521,0,0,1,4.084-1.6Z" transform="translate(-412.105 -85.638)"/></g><g transform="translate(42.783)"><path class="h" d="M423.656,83.88c.02.126-.448.32-1.044.434s-1.1.1-1.131-.02.439-.319,1.044-.434S423.636,83.754,423.656,83.88Z" transform="translate(-421.48 -83.78)"/></g></g><rect class="d" width="44.452" height="65.949" transform="translate(0.029 41.489) rotate(-68.859)"/><path class="h" d="M414.187,111.616l-.02-.008L352.635,87.814l.008-.02,16.04-41.481.02.008,61.531,23.793-.008.02ZM352.693,87.79l61.469,23.77,16.015-41.42L368.708,46.37Z" transform="translate(-352.635 -46.313)"/><g transform="translate(16.063 0.603)"><path class="h" d="M432.255,70.778a4.626,4.626,0,0,1-.786.33l-2.293.838L420.7,74.928l-28.1,9.647-.232.079-.123-.212c-.095-.161-.2-.337-.3-.512l-15.1-26.057c-1.882-3.306-3.417-6-4.515-7.931l-1.2-2.171a4.612,4.612,0,0,1-.383-.778,4.773,4.773,0,0,1,.488.717c.326.533.758,1.236,1.3,2.115l4.68,7.835L392.46,83.629c.1.175.2.35.3.512l-.355-.132,28.161-9.479,8.537-2.8L431.43,71A4.543,4.543,0,0,1,432.255,70.778Z" transform="translate(-370.743 -46.993)"/></g><g transform="translate(0.032 25.188)"><path class="h" d="M352.672,91.583c-.08-.145,6.744-4.04,15.238-8.7s15.449-8.319,15.528-8.174-6.742,4.039-15.239,8.7S352.751,91.728,352.672,91.583Z" transform="translate(-352.671 -74.707)"/></g><g transform="translate(51.437 32.58)"><path class="h" d="M410.627,83.04c.158-.048,2.548,7.361,5.336,16.547s4.921,16.674,4.763,16.722-2.547-7.36-5.336-16.549S410.469,83.088,410.627,83.04Z" transform="translate(-410.619 -83.04)"/></g></g><g transform="translate(112.459 123.984)"><g transform="translate(134.398 35.211)"><g transform="translate(99.114 78.547)"><path class="h" d="M349.306,217.293c.128.009.191.513.141,1.126s-.193,1.1-.32,1.088-.19-.515-.14-1.125S349.179,217.285,349.306,217.293Z" transform="translate(-348.97 -217.293)"/></g><g transform="translate(99.44 69.526)"><path class="h" d="M349.573,207.123a11.156,11.156,0,0,1-.011,4.513,11.157,11.157,0,0,1,.011-4.513Z" transform="translate(-349.337 -207.123)"/></g><g transform="translate(98.96 60.522)"><path class="h" d="M348.9,196.974a11.132,11.132,0,0,1,.414,4.495,11.134,11.134,0,0,1-.414-4.495Z" transform="translate(-348.796 -196.974)"/></g><g transform="translate(97.502 51.624)"><path class="h" d="M347.208,186.944a11.144,11.144,0,0,1,.867,4.429,11.136,11.136,0,0,1-.867-4.429Z" transform="translate(-347.153 -186.943)"/></g><g transform="translate(95.071 42.939)"><path class="h" d="M344.447,177.154a11.166,11.166,0,0,1,1.348,4.309,11.128,11.128,0,0,1-1.348-4.309Z" transform="translate(-344.412 -177.153)"/></g><g transform="translate(91.632 34.605)"><path class="h" d="M340.559,167.761a11.126,11.126,0,0,1,1.853,4.115,11.143,11.143,0,0,1-1.853-4.115Z" transform="translate(-340.536 -167.758)"/></g><g transform="translate(87.16 26.773)"><path class="h" d="M335.509,158.933c.1-.071.743.724,1.415,1.781a5.7,5.7,0,0,1,.957,2.062c-.111.063-.716-.752-1.35-1.82A5.8,5.8,0,0,1,335.509,158.933Z" transform="translate(-335.494 -158.929)"/></g><g transform="translate(81.637 19.642)"><path class="h" d="M329.279,150.9c.095-.086.821.624,1.622,1.585a5.686,5.686,0,0,1,1.268,1.881c-.1.078-.829-.632-1.623-1.585A5.782,5.782,0,0,1,329.279,150.9Z" transform="translate(-329.269 -150.89)"/></g><g transform="translate(75.162 13.362)"><path class="h" d="M321.975,143.822c.081-.1.9.5,1.83,1.34s1.611,1.591,1.521,1.683a5.744,5.744,0,0,1-1.831-1.34C322.575,144.673,321.894,143.919,321.975,143.822Z" transform="translate(-321.969 -143.811)"/></g><g transform="translate(67.846 8.083)"><path class="h" d="M313.726,137.875a5.671,5.671,0,0,1,2.007,1.058c1.042.695,1.826,1.34,1.75,1.443a5.768,5.768,0,0,1-2.007-1.058C314.443,138.631,313.66,137.984,313.726,137.875Z" transform="translate(-313.722 -137.859)"/></g><g transform="translate(59.811 3.977)"><path class="h" d="M304.666,133.255a11.176,11.176,0,0,1,4.1,1.89,11.12,11.12,0,0,1-4.1-1.89Z" transform="translate(-304.664 -133.231)"/></g><g transform="translate(51.214 1.239)"><path class="h" d="M294.973,130.187a11.143,11.143,0,0,1,4.357,1.175,11.132,11.132,0,0,1-4.357-1.175Z" transform="translate(-294.972 -130.145)"/></g><g transform="translate(42.271)"><path class="h" d="M284.892,128.886a5.635,5.635,0,0,1,2.272-.1,5.692,5.692,0,0,1,2.226.465,5.734,5.734,0,0,1-2.263,0A5.814,5.814,0,0,1,284.892,128.886Z" transform="translate(-284.892 -128.748)"/></g><g transform="translate(33.277 0.14)"><path class="h" d="M274.753,129.523a11.159,11.159,0,0,1,4.482-.53,11.117,11.117,0,0,1-4.482.53Z" transform="translate(-274.753 -128.906)"/></g><g transform="translate(24.563 1.676)"><path class="h" d="M264.931,132.038a11.148,11.148,0,0,1,4.3-1.364,11.147,11.147,0,0,1-4.3,1.364Z" transform="translate(-264.929 -130.637)"/></g><g transform="translate(16.436 4.819)"><path class="h" d="M255.772,136.349c-.066-.108.773-.68,1.874-1.277a5.653,5.653,0,0,1,2.1-.871,11.15,11.15,0,0,1-3.97,2.149Z" transform="translate(-255.768 -134.18)"/></g><g transform="translate(9.225 9.501)"><path class="h" d="M247.647,142.362c-.087-.093.622-.82,1.585-1.622s1.805-1.371,1.881-1.269-.633.829-1.584,1.622A5.762,5.762,0,0,1,247.647,142.362Z" transform="translate(-247.64 -139.458)"/></g><g transform="translate(3.321 15.636)"><path class="h" d="M241,149.95a5.055,5.055,0,0,1,1.146-1.965c.768-.994,1.52-1.687,1.614-1.6a6.573,6.573,0,0,1-1.248,1.887C241.751,149.246,241.106,150.023,241,149.95Z" transform="translate(-240.984 -146.374)"/></g><g transform="translate(0 23.069)"><path class="h" d="M237.284,156.754c-.117-.051.006-.543.276-1.1s.579-.957.692-.9-.011.551-.276,1.1S237.4,156.807,237.284,156.754Z" transform="translate(-237.24 -154.753)"/></g></g><g transform="translate(40.202 53.805)"><g transform="translate(37.876 58.429)"><path class="h" d="M173.751,215.973c-.009-.128.472-.29,1.072-.363s1.107-.03,1.129.1-.459.288-1.073.363S173.759,216.1,173.751,215.973Z" transform="translate(-173.751 -215.575)"/></g><g transform="translate(29.088 57.793)"><path class="h" d="M163.846,214.9a19.085,19.085,0,0,1,4.347.91,7.577,7.577,0,0,1-4.347-.91Z" transform="translate(-163.845 -214.858)"/></g><g transform="translate(21.144 53.89)"><path class="h" d="M154.894,210.472a6.644,6.644,0,0,1,1.985,1.008c1.045.625,1.889,1.149,1.832,1.265a4.72,4.72,0,0,1-2.068-.868C155.579,211.242,154.822,210.574,154.894,210.472Z" transform="translate(-154.89 -210.458)"/></g><g transform="translate(14.536 47.971)"><path class="h" d="M147.451,203.793c.1-.085.826.593,1.685,1.46s1.528,1.6,1.443,1.7-.9-.493-1.772-1.374S147.356,203.876,147.451,203.793Z" transform="translate(-147.441 -203.786)"/></g><g transform="translate(9.313 40.788)"><path class="h" d="M141.569,195.693c.11-.065.743.711,1.411,1.732A5.6,5.6,0,0,1,144,199.409c-.1.076-.735-.7-1.411-1.732A5.512,5.512,0,0,1,141.569,195.693Z" transform="translate(-141.553 -195.689)"/></g><g transform="translate(5.47 32.776)"><path class="h" d="M137.248,186.659a10.827,10.827,0,0,1,1.742,4.09,10.789,10.789,0,0,1-1.742-4.09Z" transform="translate(-137.221 -186.657)"/></g><g transform="translate(2.904 24.265)"><path class="h" d="M134.372,177.063a10.78,10.78,0,0,1,1.129,4.3,10.82,10.82,0,0,1-1.129-4.3Z" transform="translate(-134.328 -177.062)"/></g><g transform="translate(1.333 15.511)"><path class="h" d="M132.628,167.194a10.813,10.813,0,0,1,.666,4.4,10.814,10.814,0,0,1-.666-4.4Z" transform="translate(-132.557 -167.194)"/></g><g transform="translate(0.439 6.66)"><path class="h" d="M131.662,157.217a10.813,10.813,0,0,1,.359,4.432,10.817,10.817,0,0,1-.359-4.432Z" transform="translate(-131.549 -157.217)"/></g><path class="h" d="M131.239,149.709c.127-.005.254.485.283,1.1s-.051,1.112-.178,1.119-.254-.484-.283-1.1S131.111,149.715,131.239,149.709Z" transform="translate(-131.054 -149.709)"/></g><g transform="translate(0)"><rect class="d" width="73.843" height="49.773" transform="translate(0.024 3.5) rotate(-2.699)"/><path class="h" d="M88.081,142.3v-.023l-2.345-49.74h.023l73.784-3.477v.022l2.345,49.74h-.022Zm-2.3-49.72,2.341,49.673,73.717-3.475L159.5,89.1Z" transform="translate(-85.735 -89.055)"/><g transform="translate(0.287 0.608)"><path class="h" d="M159.821,89.742a5.2,5.2,0,0,1-.656.694l-1.969,1.9-7.332,6.889-24.417,22.6-.2.186-.223-.161-.538-.389L97.232,101.6l-8.214-6.079L86.8,93.841a5.286,5.286,0,0,1-.745-.623,5.269,5.269,0,0,1,.825.514l2.287,1.578,8.339,5.906,27.369,19.7.538.389-.423.025,24.552-22.452,7.475-6.733,2.053-1.8A5.148,5.148,0,0,1,159.821,89.742Z" transform="translate(-86.058 -89.741)"/></g><g transform="translate(2.628 22.601)"><path class="h" d="M88.7,145.736c-.147-.113,5.079-7.19,11.671-15.8s12.056-15.511,12.2-15.4-5.078,7.187-11.671,15.805S88.848,145.848,88.7,145.736Z" transform="translate(-88.698 -114.532)"/></g><g transform="translate(50.992 20.823)"><path class="h" d="M143.22,112.53c.14-.121,5.94,6.386,12.953,14.532s12.586,14.85,12.446,14.97-5.939-6.384-12.954-14.533S143.08,112.65,143.22,112.53Z" transform="translate(-143.217 -112.528)"/></g></g></g><g transform="translate(49.384 192.196)"><g transform="translate(126.156 67.052)"><path class="k" d="M229.843,287.573a2.017,2.017,0,0,0-1.53-2.248l-1.977.137L219.262,283a2.115,2.115,0,0,0-2.675,1.925c-.04,2.033-.85,7.569-2.5,5.828-.039-.041-.079-.074-.118-.113-2.332-2.6-5.032-3.857-6.075-3.707a1.181,1.181,0,0,0-.507,2.091,1.254,1.254,0,0,0,.42.294c.072.03.159.088.236.127a17.541,17.541,0,0,1,2.7,2.415,9.3,9.3,0,0,1,1.779,2.691c.477,1.1.847,2.062,1.135,2.883l.111,6.5-2.825,30.4s-18.713-19.655-18.278-19.849l1.073,30.6,11.336,9.381a14.256,14.256,0,0,0,23.344-11.221l-.654-39.31.461-5.155Z" transform="translate(-192.663 -282.931)"/></g><g transform="translate(0 114.909)"><path class="k" d="M108.693,336.879,88.218,383.757,72.011,417.569l-12.036,4.048s-9.526,2.766-9.526,4.738,2.513,1.522,2.513,1.522c.462,2.944,4.538,1.275,7.393-.048s9.194-1.583,9.194-1.583a2.583,2.583,0,0,0-.177,4.134c1.009.708,2.769-.149,3.961-1.418s4.255-1.86,7.668-3.076,3.974-5.805,3.974-5.805L125.986,351Z" transform="translate(-50.449 -336.879)"/></g><g transform="translate(46.316 86.665)"><path class="d" d="M182.579,350.3l5.158,6.809L198.9,332.337s-10.838-13.227-14.8-18.775c-3.93-5.5-6.879-6.455-6.879-6.455s-7.2-2.14-10.8-2.064L148.629,306.1l-18.072,7.89a25.017,25.017,0,0,0-10.879,9.16L102.66,350.484l24.092,10.3,8.079,46.193c1.551,6.927,2.905,13.465,9.3,16.658l44.685-42.944-5.236-8.245Z" transform="translate(-102.66 -305.04)"/><g transform="translate(24.512 36.794)"><path class="h" d="M142.979,346.518c.106.071-2.648,4.352-6.15,9.56s-6.429,9.375-6.534,9.3,2.647-4.351,6.151-9.562S142.873,346.446,142.979,346.518Z" transform="translate(-130.292 -346.517)"/></g><g transform="translate(42.901 80.643)"><path class="h" d="M182.779,395.95a7.934,7.934,0,0,1-1.187.708c-.778.431-1.913,1.034-3.325,1.766-2.821,1.464-6.751,3.425-11.137,5.493s-8.4,3.849-11.328,5.093c-1.462.623-2.651,1.114-3.478,1.441a7.922,7.922,0,0,1-1.3.464,7.866,7.866,0,0,1,1.23-.63l3.417-1.573c2.889-1.32,6.878-3.147,11.263-5.213s8.331-3.979,11.188-5.367l3.39-1.634A7.941,7.941,0,0,1,182.779,395.95Z" transform="translate(-151.022 -395.947)"/></g><g transform="translate(22.677 16.695)"><path class="h" d="M141.313,333.953a15.278,15.278,0,0,1-1.567-1.974,31.8,31.8,0,0,0-3.97-4.526,14,14,0,0,0-5.116-3.013c-1.466-.453-2.442-.443-2.437-.527a1.745,1.745,0,0,1,.681-.053,8.279,8.279,0,0,1,1.845.266,12.909,12.909,0,0,1,5.335,2.983,25.371,25.371,0,0,1,3.926,4.679A12.35,12.35,0,0,1,141.313,333.953Z" transform="translate(-128.224 -323.86)"/></g><g transform="translate(44.457 49.299)"><path class="h" d="M180.85,360.614a1.949,1.949,0,0,1,.021.491c-.008.321.005.8-.044,1.405a33.777,33.777,0,0,1-.711,5.121,36.694,36.694,0,0,1-20.65,25.743,33.83,33.83,0,0,1-4.844,1.807c-.584.179-1.05.27-1.362.348a1.918,1.918,0,0,1-.483.085c-.01-.037.638-.224,1.791-.605a39.818,39.818,0,0,0,4.759-1.93,37.539,37.539,0,0,0,20.47-25.52,39.679,39.679,0,0,0,.852-5.064C180.769,361.286,180.811,360.613,180.85,360.614Z" transform="translate(-152.776 -360.614)"/></g><g class="i" transform="translate(24.186 43.125)"><path d="M132.954,384.13c-.077-.44,5.726-30.476,5.726-30.476l-8.756,13.151" transform="translate(-129.924 -353.654)"/></g><g transform="translate(78.744 16.438)"><path class="h" d="M191.456,323.57a2.231,2.231,0,0,1,.064.517c.025.389.055.881.093,1.483.068,1.352.161,3.2.275,5.459.226,4.666.533,11.007.873,18.011.334,7.037.6,13.409.737,18.024.07,2.307.114,4.175.129,5.465,0,.605,0,1.1.006,1.487a2.2,2.2,0,0,1-.029.52,2.227,2.227,0,0,1-.064-.516c-.024-.389-.055-.881-.093-1.484-.068-1.351-.161-3.2-.275-5.458-.226-4.666-.533-11.007-.873-18.015-.334-7.034-.6-13.406-.737-18.02-.069-2.307-.114-4.175-.129-5.466,0-.6,0-1.1-.006-1.487A2.2,2.2,0,0,1,191.456,323.57Z" transform="translate(-191.427 -323.57)"/></g><g class="l" transform="translate(42.171 71.014)"><path d="M151.137,409.662c-1.429-1.192-1.1-3.618.16-4.985s3.135-1.955,4.906-2.528c8.491-2.75,17.027-6.638,22.629-13.587a13.356,13.356,0,0,1,2.51-2.7,3.458,3.458,0,0,1,3.483-.482c1.716.892,1.78,3.378,1.06,5.173a9.936,9.936,0,0,1-4.682,5.111" transform="translate(-150.199 -385.093)"/></g><g class="l" transform="translate(78.959 21.769)"><path d="M191.669,329.579l4.958,28.775-3.863-5.1Z" transform="translate(-191.669 -329.579)"/></g></g><g transform="translate(88.796 131.901)"><g transform="translate(75.274 52.122)"><path class="d" d="M243.786,414.79,235.4,443.546l35.723,10.615c.8-3.475-15.64-15.818-15.64-15.818l6.128-18.2Z" transform="translate(-235.402 -414.79)"/><g class="m" transform="translate(7.99 18.71)"><path class="n" d="M245.915,435.894a1.522,1.522,0,0,0-1.5,1.365,1.463,1.463,0,0,0,1.34,1.5,1.6,1.6,0,0,0,1.584-1.454c-.037-.747-.835-1.559-1.567-1.408" transform="translate(-244.409 -435.882)"/></g><g class="m" transform="translate(0 25.891)"><path class="n" d="M235.4,446.841l.958-2.865,33.892,11.248s1.386,1.165.873,2.232Z" transform="translate(-235.402 -443.976)"/></g><g transform="translate(16.874 23.108)"><path class="h" d="M258.265,441.275c-.058.173-.953-.007-1.978.3-1.033.279-1.7.9-1.84.786-.151-.082.42-1.048,1.667-1.4S258.35,441.126,258.265,441.275Z" transform="translate(-254.423 -440.84)"/></g><g transform="translate(20.893 26.03)"><path class="h" d="M262.063,444.31c-.011.181-.854.253-1.666.815-.828.538-1.214,1.291-1.386,1.231-.172-.021.011-1.079,1.033-1.757S262.109,444.142,262.063,444.31Z" transform="translate(-258.955 -444.133)"/></g><g transform="translate(24.709 28.691)"><path class="h" d="M263.345,449.765c-.169-.01-.153-.954.578-1.776s1.661-.96,1.691-.793c.056.173-.626.529-1.216,1.213C263.792,449.078,263.523,449.8,263.345,449.765Z" transform="translate(-263.256 -447.133)"/></g><g transform="translate(17.881 17.961)"><path class="h" d="M259.33,436.316c-.121.137-.85-.342-1.855-.568-1-.247-1.867-.144-1.913-.319-.064-.157.877-.579,2.058-.3S259.456,436.2,259.33,436.316Z" transform="translate(-255.559 -435.037)"/></g><g transform="translate(17.212 10.485)"><path class="h" d="M259.653,430.873a3.5,3.5,0,0,1-1.786-.541,8.382,8.382,0,0,1-1.7-1.131,8.842,8.842,0,0,1-.865-.851,2.273,2.273,0,0,1-.415-.581.794.794,0,0,1,.2-.952,1,1,0,0,1,.883-.172,2.429,2.429,0,0,1,.644.293,6.665,6.665,0,0,1,1,.712,6.566,6.566,0,0,1,1.328,1.573,3.109,3.109,0,0,1,.62,1.765c-.1.034-.337-.632-.992-1.516a7.478,7.478,0,0,0-1.329-1.373,6.988,6.988,0,0,0-.933-.622c-.349-.212-.67-.311-.817-.17-.054.053-.067.077-.02.211a1.851,1.851,0,0,0,.306.426,9.806,9.806,0,0,0,.785.821,10.3,10.3,0,0,0,1.532,1.177A12.818,12.818,0,0,1,259.653,430.873Z" transform="translate(-254.805 -426.61)"/></g><g transform="translate(21.648 9.638)"><path class="h" d="M259.917,430.947a2.968,2.968,0,0,1,.041-1.868,6.055,6.055,0,0,1,1.6-2.837,1.544,1.544,0,0,1,1.41-.564.871.871,0,0,1,.6.721,2.5,2.5,0,0,1-.011.711,4.156,4.156,0,0,1-.357,1.206,4.29,4.29,0,0,1-1.313,1.621c-.973.719-1.763.711-1.76.648-.032-.106.676-.262,1.474-.993a4.292,4.292,0,0,0,1.065-1.513,3.866,3.866,0,0,0,.274-1.043c.057-.4.006-.745-.148-.749-.177-.056-.563.14-.8.4a6.2,6.2,0,0,0-.732.838,6.68,6.68,0,0,0-.877,1.682C260.027,430.241,260.019,430.949,259.917,430.947Z" transform="translate(-259.806 -425.655)"/></g></g><g transform="translate(0)"><path class="h" d="M270.881,365.337c.9,6.634-1.366,14.116-3.766,20.367L251.448,422.54l-17.339-2.661a22.331,22.331,0,0,1-8.238,5.564c-2.067.689-8.869,2.026-14.466-2h0s-7.922,11.034-20.386,14.373-31.335,5.177-40.472-9.4l43.489-41.91c.9.215,37.461-24.443,57.211-30.056C251.247,356.442,269.217,353.138,270.881,365.337Z" transform="translate(-150.547 -356.034)"/></g><g transform="translate(32.844 26.542)"><path class="f" d="M237,423.111a1.2,1.2,0,0,1,.234-.142l.711-.376c.624-.33,1.552-.8,2.723-1.452a44.8,44.8,0,0,0,4.146-2.557,21.616,21.616,0,0,0,4.7-4.353,15.082,15.082,0,0,0,3.044-7.04,23.635,23.635,0,0,0-.371-8.863A14.3,14.3,0,0,0,247.394,390a18.049,18.049,0,0,0-9.793-3.485,30.284,30.284,0,0,0-5.369.044,40.258,40.258,0,0,0-5.149.9,61.018,61.018,0,0,0-9.358,3.237c-5.8,2.531-10.829,5.267-15.248,7.153a54.55,54.55,0,0,1-10.778,3.6c-.656.147-1.245.24-1.756.319s-.944.142-1.3.173l-.8.077a1.182,1.182,0,0,1-.274.011,1.3,1.3,0,0,1,.27-.058l.793-.122c.35-.045.78-.114,1.285-.216s1.091-.2,1.741-.359a57.312,57.312,0,0,0,10.685-3.722c4.388-1.919,9.392-4.68,15.211-7.246a60.809,60.809,0,0,1,9.418-3.286,40.41,40.41,0,0,1,5.211-.921,30.569,30.569,0,0,1,5.455-.048,18.435,18.435,0,0,1,10.035,3.592,12.653,12.653,0,0,1,3.262,3.964,18.283,18.283,0,0,1,1.657,4.625,23.9,23.9,0,0,1,.334,9.02,15.371,15.371,0,0,1-3.165,7.177,21.624,21.624,0,0,1-4.805,4.364,42.141,42.141,0,0,1-4.208,2.5c-1.188.625-2.129,1.073-2.768,1.377l-.73.335A1.227,1.227,0,0,1,237,423.111Z" transform="translate(-187.572 -385.955)"/></g><g transform="translate(85.488 15.363)"><path class="f" d="M254.574,373.354a104.716,104.716,0,0,1-7.653,11.6,104.492,104.492,0,0,1,7.653-11.6Z" transform="translate(-246.916 -373.352)"/></g><g transform="translate(59.756 60.759)"><path class="f" d="M238.795,424.539a31.637,31.637,0,0,1-3.151.813c-1.947.483-4.618,1.222-7.5,2.23s-5.436,2.1-7.259,2.936a31.369,31.369,0,0,1-2.97,1.33,3.262,3.262,0,0,1,.731-.487c.483-.289,1.2-.68,2.1-1.136a60.564,60.564,0,0,1,14.833-5.191c.986-.2,1.79-.344,2.349-.42A3.222,3.222,0,0,1,238.795,424.539Z" transform="translate(-217.909 -424.527)"/></g><g transform="translate(88.713 58.417)"><path class="f" d="M262.431,427.562c-.08.028-.288-.786-1.024-1.87a7.5,7.5,0,0,0-8.927-2.9c-1.231.445-1.878.981-1.927.913-.018-.022.123-.178.42-.412a6.27,6.27,0,0,1,1.387-.8,7.392,7.392,0,0,1,9.322,3.025,6.3,6.3,0,0,1,.65,1.466C262.436,427.346,262.459,427.555,262.431,427.562Z" transform="translate(-250.552 -421.886)"/></g><g transform="translate(14.836 50.346)"><path class="f" d="M178,412.789a2.78,2.78,0,0,1,.225.829,12.916,12.916,0,0,1,.2,2.334,14.379,14.379,0,0,1-2.045,7.407,11.306,11.306,0,0,1-5.941,4.828,8.372,8.372,0,0,1-2.308.443,2.485,2.485,0,0,1-.86-.04,16.86,16.86,0,0,0,3.059-.711,11.555,11.555,0,0,0,5.656-4.763,15.093,15.093,0,0,0,2.112-7.173C178.177,414,177.915,412.8,178,412.789Z" transform="translate(-167.271 -412.789)"/></g><g transform="translate(4.427 54.687)"><g transform="translate(0 13.387)"><path class="f" d="M157.107,434.944c-.1.079-.557-.323-.989-.925s-.664-1.173-.552-1.239.5.38.927.97S157.208,434.863,157.107,434.944Z" transform="translate(-155.538 -432.773)"/></g><g transform="translate(3.297 17.553)"><path class="f" d="M161.18,439.33c-.083.1-.584-.243-1.116-.758s-.888-1-.794-1.089.593.252,1.115.758S161.263,439.234,161.18,439.33Z" transform="translate(-159.255 -437.47)"/></g><g transform="translate(7.288 21.055)"><path class="f" d="M165.994,442.891c-.063.111-.619-.127-1.242-.531s-1.065-.816-.99-.919.632.135,1.242.53S166.056,442.78,165.994,442.891Z" transform="translate(-163.754 -441.417)"/></g><g transform="translate(11.899 23.676)"><path class="f" d="M171.457,445.322c-.034.123-.629.019-1.329-.234s-1.224-.553-1.173-.669.648-.012,1.33.234S171.492,445.2,171.457,445.322Z" transform="translate(-168.952 -444.371)"/></g><g transform="translate(17 25.069)"><path class="f" d="M177.35,446.322c0,.128-.6.177-1.344.11s-1.324-.225-1.3-.351.624-.175,1.345-.109S177.353,446.195,177.35,446.322Z" transform="translate(-174.702 -445.942)"/></g><g transform="translate(22.307 25.003)"><path class="f" d="M183.334,446.025c.016.127-.573.271-1.316.321a5.5,5.5,0,0,1-1-.011h.018c-.218-.018-.35-.059-.357-.117s.116-.126.322-.189h.019a5.443,5.443,0,0,1,.974-.144C182.721,445.835,183.319,445.9,183.334,446.025Z" transform="translate(-180.684 -445.868)"/></g><g transform="translate(27.586 24.137)"><path class="f" d="M189.234,444.971c.031.123-.53.35-1.251.5s-1.325.177-1.347.052.538-.351,1.251-.5S189.2,444.847,189.234,444.971Z" transform="translate(-186.635 -444.891)"/></g><g transform="translate(32.745 22.615)"><path class="f" d="M194.975,443.228c.044.12-.488.406-1.188.641s-1.3.325-1.334.2.495-.409,1.188-.64S194.93,443.109,194.975,443.228Z" transform="translate(-192.451 -443.175)"/></g><g transform="translate(37.738 20.553)"><path class="f" d="M200.5,440.889c.056.115-.443.455-1.115.761s-1.257.458-1.306.34.45-.458,1.115-.76S200.447,440.775,200.5,440.889Z" transform="translate(-198.079 -440.851)"/></g><g transform="translate(42.52 18.004)"><path class="f" d="M205.773,438.006c.067.108-.395.5-1.033.868s-1.2.58-1.265.468.4-.5,1.033-.868S205.706,437.9,205.773,438.006Z" transform="translate(-203.47 -437.978)"/></g><g transform="translate(47.048 15.014)"><path class="f" d="M210.744,434.628c.077.1-.346.533-.947.963s-1.144.694-1.215.588.352-.538.947-.963S210.667,434.527,210.744,434.628Z" transform="translate(-208.574 -434.607)"/></g><g transform="translate(51.292 11.631)"><path class="f" d="M215.381,430.811c.086.094-.3.562-.854,1.045s-1.076.794-1.157.7.3-.566.854-1.045S215.295,430.716,215.381,430.811Z" transform="translate(-213.359 -430.794)"/></g><g transform="translate(55.232 7.979)"><path class="f" d="M219.754,426.693c.084.1-.279.579-.813,1.08s-1.041.833-1.127.746.271-.575.81-1.082S219.67,426.6,219.754,426.693Z" transform="translate(-217.8 -426.676)"/></g><g transform="translate(59.223 4.701)"><path class="f" d="M224.467,423.005c.07.106-.352.54-.944.969s-1.135.695-1.214.594.343-.534.944-.969S224.4,422.9,224.467,423.005Z" transform="translate(-222.299 -422.982)"/></g><g transform="translate(63.66 2.115)"><path class="f" d="M229.7,420.1c.05.117-.439.475-1.093.8s-1.234.495-1.3.384.426-.468,1.092-.8S229.645,419.986,229.7,420.1Z" transform="translate(-227.301 -420.066)"/></g><g transform="translate(68.544 0.501)"><path class="f" d="M235.391,418.318c.022.126-.531.371-1.236.547s-1.307.22-1.347.1.514-.366,1.236-.546S235.369,418.193,235.391,418.318Z" transform="translate(-232.807 -418.247)"/></g><g transform="translate(73.771)"><path class="f" d="M241.359,417.985c-.013.128-.609.171-1.332.16s-1.319-.079-1.327-.208.588-.269,1.335-.255S241.372,417.859,241.359,417.985Z" transform="translate(-238.699 -417.682)"/></g><g transform="translate(79.053 0.682)"><path class="f" d="M247.159,419.417c-.059.114-.625-.057-1.307-.3s-1.229-.478-1.2-.6.644-.082,1.352.169S247.219,419.3,247.159,419.417Z" transform="translate(-244.654 -418.451)"/></g><g transform="translate(80.427 3.518)"><path class="f" d="M246.213,423.638c-.082-.1.318-.54.79-1.072s.855-.978.968-.912-.114.65-.624,1.219S246.288,423.736,246.213,423.638Z" transform="translate(-246.202 -421.648)"/></g><g transform="translate(75.736 6.892)"><path class="f" d="M240.917,426.507c-.04-.122.471-.444,1.14-.72s1.261-.408,1.319-.294-.452.436-1.14.72S240.957,426.628,240.917,426.507Z" transform="translate(-240.915 -425.451)"/></g><g transform="translate(70.667 8.674)"><path class="f" d="M235.2,428.36c-.043-.12.489-.408,1.188-.642s1.3-.326,1.334-.2-.494.409-1.188.642S235.245,428.481,235.2,428.36Z" transform="translate(-235.2 -427.46)"/></g><g transform="translate(65.692 10.451)"><path class="f" d="M229.595,430.484c-.048-.118.469-.433,1.154-.7s1.278-.392,1.324-.273-.471.435-1.154.7S229.643,430.6,229.595,430.484Z" transform="translate(-229.592 -429.463)"/></g><g transform="translate(60.786 12.448)"><path class="f" d="M224.065,432.81c-.051-.117.455-.448,1.132-.74s1.264-.432,1.314-.315-.457.449-1.131.739S224.116,432.927,224.065,432.81Z" transform="translate(-224.061 -431.714)"/></g></g></g><g transform="translate(130.115)"><g transform="translate(0 18.045)"><g transform="translate(1.438)"><g transform="translate(12.547)"><path class="f" d="M212.89,257.659s5.8-1.743,13.509-10.342,10.818-19.488,11.838-19.511,5.3-2.414,15.1,15.312,6.8,22.235,5.114,22.325-13.318-2.238-20.378-.9-15.937,5.731-15.937,5.731Z" transform="translate(-212.89 -227.686)"/></g><g transform="translate(0 26.354)"><path class="h" d="M199.507,271.949l2.3,3.676,1.029,1.646A5.006,5.006,0,0,0,209.506,279l12.315-5.345-8.612-16.26-12.13,7.67A5.008,5.008,0,0,0,199.507,271.949Z" transform="translate(-198.746 -257.394)"/></g><g transform="translate(8.505 42.891)"><path class="h" d="M208.334,279.638l4.616,7.6,1.974-.71,13.952,9.724,3.141-7.471s-8.024-2.771-9.668-5.437-.029-3.418-.029-3.418l-3.968-3.886Z" transform="translate(-208.334 -276.036)"/></g><g transform="translate(38.305 0.375)"><path class="h" d="M255.963,243.55c5.229,9.608,7.757,18.329,5.646,19.478s-8.063-5.708-13.292-15.316-7.757-18.329-5.646-19.478S250.733,233.942,255.963,243.55Z" transform="translate(-241.926 -228.108)"/></g></g><g transform="translate(0 41.313)"><path class="f" d="M198.65,279.462,202,278.131l-2.42-3.874-2.451,1.789Z" transform="translate(-197.125 -274.257)"/></g><g transform="translate(11.233 44.223)"><path class="f" d="M219.876,277.537,211.1,284.1l-1.316-2.165Z" transform="translate(-209.788 -277.537)"/></g><g transform="translate(2.158 41.313)"><path class="f" d="M199.851,274.257l2.42,3.874-.688.274-2.026-3.934Z" transform="translate(-199.558 -274.257)"/></g><g transform="translate(4.88 38.133)"><path class="f" d="M202.628,274.607a38.242,38.242,0,0,0,7.207-3.925,38.258,38.258,0,0,0-7.207,3.925Z" transform="translate(-202.626 -270.672)"/></g><g transform="translate(3.647 35.927)"><path class="f" d="M201.239,272a32.054,32.054,0,0,0,6.472-3.808A32.052,32.052,0,0,0,201.239,272Z" transform="translate(-201.237 -268.185)"/></g><g transform="translate(6.397 40.95)"><path class="f" d="M204.337,277.385c.023.058.423-.067,1.057-.316.317-.124.692-.279,1.106-.459s.833-.439,1.287-.687a14.63,14.63,0,0,0,3.123-2.065,17.666,17.666,0,0,0-3.336,1.679c-.451.245-.865.51-1.26.711s-.752.377-1.049.536C204.674,277.1,204.316,277.328,204.337,277.385Z" transform="translate(-204.336 -273.847)"/></g><g transform="translate(44.461 13.344)"><path class="f" d="M247.245,243.671s4.89-3.56,8.21,3.157-1.99,8.258-1.99,8.258A46.263,46.263,0,0,1,247.245,243.671Z" transform="translate(-247.245 -242.729)"/></g><g transform="translate(38.389 6.438)"><path class="h" d="M240.405,234.943a7.881,7.881,0,0,0,.3,1.308c.224.834.546,2.046.986,3.53l.888,2.371.5,1.32.262.69c.094.232.211.456.318.688.44.925.9,1.9,1.38,2.9q.18.378.364.761c.119.257.279.5.418.748l.878,1.514q.447.766.881,1.514c.15.245.279.5.443.734s.323.464.482.693l1.839,2.636c.149.208.287.421.44.617l.471.57.9,1.089,1.622,1.947c1.068,1.115,1.96,1.991,2.573,2.6a7.737,7.737,0,0,0,.989.908,7.876,7.876,0,0,0-.865-1.027l-2.471-2.7-1.569-1.968-.876-1.093-.459-.57c-.15-.2-.284-.41-.43-.618l-1.805-2.634-.475-.69c-.162-.231-.289-.485-.437-.73q-.43-.742-.873-1.5t-.875-1.5c-.138-.249-.3-.485-.417-.741l-.365-.754c-.483-1-.949-1.956-1.395-2.871-.108-.23-.227-.452-.324-.68l-.269-.682-.516-1.3c-.335-.84-.648-1.622-.933-2.34-.467-1.45-.846-2.632-1.116-3.474A7.75,7.75,0,0,0,240.405,234.943Z" transform="translate(-240.401 -234.943)"/></g><g transform="translate(21.785 46.735)"><path class="k" d="M225.107,280.431a1.51,1.51,0,0,1,1.039,1.819c-.381,1.508-1.005,3.877-1.506,5.325a3.829,3.829,0,0,1-.664,1.314,1.238,1.238,0,0,1-2.257-.64,3.931,3.931,0,0,1,.129-1.547c.312-1.406.884-3.519,1.382-5.242a1.51,1.51,0,0,1,1.878-1.029Z" transform="translate(-221.683 -280.369)"/><g transform="translate(2.401 2.451)"><path class="k" d="M227.814,283.194a1.51,1.51,0,0,1,1.039,1.819c-.381,1.508-1.005,3.877-1.506,5.325a3.836,3.836,0,0,1-.664,1.314,1.238,1.238,0,0,1-2.257-.64,3.937,3.937,0,0,1,.129-1.548c.312-1.405.884-3.518,1.382-5.242a1.509,1.509,0,0,1,1.878-1.028Z" transform="translate(-224.39 -283.132)"/></g><g transform="translate(5.18 3.929)"><path class="k" d="M230.487,284.852a1.307,1.307,0,0,1,.9,1.575c-.33,1.306-.869,3.358-1.3,4.611a3.33,3.33,0,0,1-.575,1.138,1.073,1.073,0,0,1-1.955-.554,3.421,3.421,0,0,1,.112-1.34c.271-1.217.766-3.047,1.2-4.539a1.308,1.308,0,0,1,1.626-.891Z" transform="translate(-227.522 -284.799)"/></g><g transform="translate(7.797 4.226)"><path class="k" d="M233.452,285.187a1.315,1.315,0,0,1,.9,1.583c-.332,1.312-.875,3.373-1.31,4.633a3.35,3.35,0,0,1-.578,1.143,1.078,1.078,0,0,1-1.964-.557,3.455,3.455,0,0,1,.113-1.347c.271-1.222.769-3.06,1.2-4.56a1.314,1.314,0,0,1,1.633-.9Z" transform="translate(-230.473 -285.134)"/></g><g transform="translate(2.557 3.01)"><path class="o" d="M224.594,289.3a18.358,18.358,0,0,1,1.748-5.537,18.358,18.358,0,0,1-1.748,5.537Z" transform="translate(-224.566 -283.762)"/></g><g transform="translate(7.559 4.984)"><path class="o" d="M230.227,291.565a35.955,35.955,0,0,1,1.658-5.577,12.48,12.48,0,0,1-1.658,5.577Z" transform="translate(-230.204 -285.988)"/></g><g transform="translate(5.085 4.661)"><path class="o" d="M227.438,291.2a35.649,35.649,0,0,1,1.658-5.576,12.51,12.51,0,0,1-1.658,5.576Z" transform="translate(-227.415 -285.624)"/></g></g></g><g transform="translate(55.345)"><path class="h" d="M276.131,207.345c.1.077-3.536,5.017-8.123,11.033s-8.39,10.83-8.491,10.752,3.535-5.016,8.124-11.033S276.029,207.268,276.131,207.345Z" transform="translate(-259.515 -207.344)"/><g transform="translate(6.059 14.077)"><path class="h" d="M300.707,223.216c.054.115-7.6,3.78-17.083,8.183s-17.225,7.88-17.28,7.765,7.594-3.779,17.085-8.184S300.653,223.1,300.707,223.216Z" transform="translate(-266.345 -223.213)"/></g><g transform="translate(12.567 41.008)"><path class="h" d="M297.989,255.939c-.012.127-5.464-.294-12.175-.942s-12.145-1.276-12.133-1.4,5.463.3,12.177.942S298,255.812,297.989,255.939Z" transform="translate(-273.681 -253.572)"/></g></g></g><g transform="translate(79.687 35.273)"><g transform="translate(2.46 5.686)"><path class="k" d="M143.375,272.363l6.023,34.244a11.273,11.273,0,0,0,12.692,9.118h0a11.151,11.151,0,0,0,9.581-12.814l-.979-5.893s8.426-2.285,7.546-10.745c-.423-4.079-1.988-12.4-3.5-19.926a16.142,16.142,0,0,0-18.456-12.622h0A15.756,15.756,0,0,0,143.375,272.363Z" transform="translate(-143.052 -253.517)"/><g transform="translate(11.203 12.465)"><g transform="translate(4.903 29.19)"><path class="o" d="M172.756,302.34a20.357,20.357,0,0,1-11.548-1.866s3.352,5.781,11.823,4.052Z" transform="translate(-161.208 -300.474)"/></g><g transform="translate(1.352 3.01)"><g transform="translate(12.736)"><g transform="translate(2.129 2.102)"><path class="h" d="M176.4,274.3a1.218,1.218,0,0,1-1.04,1.351,1.177,1.177,0,0,1-1.389-.945,1.218,1.218,0,0,1,1.038-1.352A1.18,1.18,0,0,1,176.4,274.3Z" transform="translate(-173.963 -273.332)"/></g><path class="h" d="M176.413,271.981c-.133.175-1.14-.4-2.458-.245-1.318.134-2.208.912-2.369.768-.078-.062.043-.364.429-.713a3.4,3.4,0,0,1,1.874-.81,3.3,3.3,0,0,1,1.98.391C176.309,271.633,176.479,271.9,176.413,271.981Z" transform="translate(-171.563 -270.962)"/></g><g transform="translate(0 1.708)"><g transform="translate(2.465 1.89)"><path class="h" d="M162.425,275.98a1.217,1.217,0,0,1-1.039,1.351,1.177,1.177,0,0,1-1.389-.945,1.219,1.219,0,0,1,1.038-1.352A1.178,1.178,0,0,1,162.425,275.98Z" transform="translate(-159.984 -275.017)"/></g><path class="h" d="M162.057,273.906c-.134.175-1.142-.4-2.458-.244-1.318.134-2.208.911-2.37.768-.078-.063.043-.364.43-.714a3.41,3.41,0,0,1,1.874-.81,3.3,3.3,0,0,1,1.98.391C161.952,273.559,162.123,273.827,162.057,273.906Z" transform="translate(-157.206 -272.887)"/></g><g transform="translate(8.883 1.844)"><path class="h" d="M169.093,283.792a8.921,8.921,0,0,1,2.1-.623c.333-.072.643-.174.673-.407a1.684,1.684,0,0,0-.339-.957l-1.29-2.412a43.252,43.252,0,0,1-3.005-6.351,43.687,43.687,0,0,1,3.517,6.1q.653,1.273,1.25,2.432a1.908,1.908,0,0,1,.326,1.282.839.839,0,0,1-.5.547,2.325,2.325,0,0,1-.562.143A8.742,8.742,0,0,1,169.093,283.792Z" transform="translate(-167.22 -273.041)"/></g><g transform="translate(6.836 13.931)"><path class="h" d="M165.058,286.667c.213-.036.381,1.372,1.722,2.235s2.846.534,2.88.73c.03.086-.308.312-.95.4a3.629,3.629,0,0,1-2.4-.53,3.078,3.078,0,0,1-1.351-1.883C164.841,287.037,164.96,286.67,165.058,286.667Z" transform="translate(-164.912 -286.666)"/></g></g><g transform="translate(0 0.67)"><path class="h" d="M161.632,269.045c-.089.367-1.425.349-2.95.708-1.532.328-2.728.915-2.97.622-.109-.141.07-.5.534-.9a5.338,5.338,0,0,1,4.51-1.013C161.35,268.626,161.668,268.871,161.632,269.045Z" transform="translate(-155.681 -268.323)"/></g><g transform="translate(13.691)"><path class="h" d="M175.633,268.676c-.2.32-1.141.117-2.235.226-1.1.072-1.993.427-2.243.142-.111-.139,0-.451.373-.776a3.291,3.291,0,0,1,3.607-.3C175.557,268.231,175.719,268.52,175.633,268.676Z" transform="translate(-171.115 -267.568)"/></g></g></g><path class="h" d="M174.476,251.162a2.989,2.989,0,0,0-3.893.244,2.7,2.7,0,0,0-.753-3.548,4.573,4.573,0,0,0-3.881-.563,13.438,13.438,0,0,0-3.622,1.78,1.36,1.36,0,0,0-.6-1.377,3.133,3.133,0,0,0-1.522-.477,11.558,11.558,0,0,0-6.4,1.436,39.811,39.811,0,0,0-5.919,4.014l.006,0a28.112,28.112,0,0,0-5.409,5.786l-.067.059c-1.254,1.12-2.309,4.486-2.119,6.142.7,6.085,2.716,9.611,3.852,15.378a2.062,2.062,0,0,0,.434,1.07c.7.73,1.964.112,2.628-.654a10.885,10.885,0,0,0,2.252-6.855c.079-2.447-.267-4.891-.213-7.339l0-.173a12.925,12.925,0,0,1,.179-1.87c.107-.4,1.143-3.891,4.506-4.464,3.566-.607,10.6,2.856,14.089,2.3s3.665-3.011,3.665-3.011l2.05,4.169a12.531,12.531,0,0,0,.33-5.208,5.888,5.888,0,0,0,1.73-3.041A3.906,3.906,0,0,0,174.476,251.162Z" transform="translate(-140.279 -247.107)"/><g transform="translate(0.815 28.077)"><path class="k" d="M146.516,278.852c-.153-.046-6.094-1.05-5.233,4.7s6.548,3.717,6.534,3.55S146.516,278.852,146.516,278.852Z" transform="translate(-141.198 -278.757)"/><g transform="translate(1.541 2.025)"><path class="o" d="M145.9,285.443c-.028-.014-.091.085-.251.188a1.048,1.048,0,0,1-.758.126,2.511,2.511,0,0,1-1.5-2.057,3.281,3.281,0,0,1,.07-1.476,1.173,1.173,0,0,1,.65-.881.528.528,0,0,1,.642.187c.1.15.082.271.114.276s.111-.114.028-.346a.651.651,0,0,0-.284-.327.791.791,0,0,0-.585-.065,1.431,1.431,0,0,0-.93,1.047,3.377,3.377,0,0,0-.113,1.655,2.641,2.641,0,0,0,1.856,2.27,1.116,1.116,0,0,0,.908-.287C145.913,285.584,145.924,285.451,145.9,285.443Z" transform="translate(-142.935 -281.04)"/></g></g></g><g transform="translate(57.861 105.046)"><path class="g" d="M130.509,325.842a1.062,1.062,0,0,1,.507-.081,1.991,1.991,0,0,1,1.311.652,2.865,2.865,0,0,1,.766,2.181,12.53,12.53,0,0,1-.675,2.986,4.091,4.091,0,0,0,.2,3.416c.632,1.1,1.919,1.942,2.446,3.473a4.1,4.1,0,0,1-1.287,4.458,4.184,4.184,0,0,1-2.4.931,8.977,8.977,0,0,1-2.566-.416,4.621,4.621,0,0,0-2.388-.153,3.486,3.486,0,0,0-1.767,1.439,12.466,12.466,0,0,1-1.513,1.891,3,3,0,0,1-2.24.822,4.465,4.465,0,0,1-3.54-2.35,8.573,8.573,0,0,1-.9-3.618c-.067-1.135-.028-2.154-.051-3.043a14.474,14.474,0,0,0-.2-2.266,12.2,12.2,0,0,0-.538-1.862,1.671,1.671,0,0,1,.254.441,6.562,6.562,0,0,1,.46,1.386,13.3,13.3,0,0,1,.278,2.292c.048.9.033,1.917.119,3.029a8.334,8.334,0,0,0,.911,3.455,4.09,4.09,0,0,0,3.225,2.111,2.572,2.572,0,0,0,1.924-.724,12.437,12.437,0,0,0,1.447-1.835,3.911,3.911,0,0,1,2-1.61,5.019,5.019,0,0,1,2.628.146,8.678,8.678,0,0,0,2.432.406,3.746,3.746,0,0,0,2.134-.824,3.673,3.673,0,0,0,1.167-3.974c-.436-1.355-1.68-2.217-2.37-3.409a3.521,3.521,0,0,1-.506-1.923,6.876,6.876,0,0,1,.32-1.778,12.857,12.857,0,0,0,.731-2.907,2.692,2.692,0,0,0-.64-2.048,1.958,1.958,0,0,0-1.188-.681C130.686,325.814,130.513,325.866,130.509,325.842Z" transform="translate(-115.674 -325.76)"/></g><g transform="translate(75.14 142.911)"><path class="g" d="M135.153,392.748c.027-.007.056.211.263.547a2.33,2.33,0,0,0,1.379.957,2.754,2.754,0,0,0,2.531-.534,5.283,5.283,0,0,0,1.7-3.1c.282-1.324.233-2.833.487-4.456a7.259,7.259,0,0,1,.819-2.424,4.05,4.05,0,0,1,2.038-1.825,5.813,5.813,0,0,1,2.85-.261c.961.106,1.911.321,2.876.445a6.84,6.84,0,0,0,2.894-.138,6.552,6.552,0,0,0,2.594-1.441,5.621,5.621,0,0,0,1.594-2.474,4.711,4.711,0,0,0-.052-2.829,4.873,4.873,0,0,0-3.856-3.429c-1.74-.2-3.374.663-5.048.7a4.839,4.839,0,0,1-2.341-.527,11.858,11.858,0,0,1-1.838-1.179,11.218,11.218,0,0,0-3.107-1.9,3.179,3.179,0,0,0-2.621.172,2.381,2.381,0,0,0-1.137,1.237c-.131.373-.114.593-.141.591a1.337,1.337,0,0,1,.053-.62,2.406,2.406,0,0,1,1.136-1.363,3.27,3.27,0,0,1,1.237-.426,3.813,3.813,0,0,1,1.55.164,11.181,11.181,0,0,1,3.223,1.881A6.312,6.312,0,0,0,148.2,372.1a12.655,12.655,0,0,0,2.418-.445,7.583,7.583,0,0,1,2.693-.292,5.294,5.294,0,0,1,4.237,3.713,5.151,5.151,0,0,1,.062,3.1,6.069,6.069,0,0,1-1.722,2.683,6.99,6.99,0,0,1-2.782,1.542,7.271,7.271,0,0,1-3.076.146c-.993-.131-1.939-.35-2.867-.456a5.42,5.42,0,0,0-2.644.218,3.64,3.64,0,0,0-1.843,1.633,6.923,6.923,0,0,0-.793,2.284c-.263,1.566-.233,3.093-.545,4.46a5.511,5.511,0,0,1-1.858,3.234,2.944,2.944,0,0,1-2.74.5,2.36,2.36,0,0,1-1.408-1.082A1.344,1.344,0,0,1,135.153,392.748Z" transform="translate(-135.153 -368.446)"/></g><g transform="translate(88.032 111.247)"><path class="g" d="M166.926,334.971a3.139,3.139,0,0,1,.615-.829,4.729,4.729,0,0,1,2.625-1.333,4.581,4.581,0,0,1,4.242,1.688,4.895,4.895,0,0,1,1.069,2.745,7.278,7.278,0,0,0,.672,3.086,2.419,2.419,0,0,0,1.3.962,6.583,6.583,0,0,0,1.76.273c.618.032,1.258.029,1.919.1a3.62,3.62,0,0,1,1.944.683,2.422,2.422,0,0,1,.677.865,2.386,2.386,0,0,1,.177,1.107,3.7,3.7,0,0,1-.923,2,5.622,5.622,0,0,1-1.764,1.394c-.67.341-1.37.614-2.049.928a7.3,7.3,0,0,0-1.892,1.165,3.7,3.7,0,0,0-1.107,1.889c-.365,1.495-.028,3.1-.109,4.8a6.182,6.182,0,0,1-.675,2.479,2.921,2.921,0,0,1-2.112,1.585,3.244,3.244,0,0,1-2.542-.84,7.827,7.827,0,0,1-1.694-2.065,21.053,21.053,0,0,0-1.371-2.179A3.994,3.994,0,0,0,165.8,354a3.4,3.4,0,0,0-2.323.149,13.938,13.938,0,0,0-2.159,1.153,12.478,12.478,0,0,1-2.206,1.149,6.693,6.693,0,0,1-2.435.4,7.628,7.628,0,0,1-4.443-1.559,6.331,6.331,0,0,1-2.434-3.753,4.331,4.331,0,0,1,1.059-4.05,4.143,4.143,0,0,1,1.824-.944,15.259,15.259,0,0,1,1.905-.331,6.137,6.137,0,0,0,3.267-1.106,6.481,6.481,0,0,0,1.74-2.631c.376-.947.631-1.89.954-2.748a8.128,8.128,0,0,1,1.2-2.264,10.013,10.013,0,0,1,1.551-1.491,5.391,5.391,0,0,1,2.652-1.285,1.172,1.172,0,0,1,.981.276,1.518,1.518,0,0,0-.972-.184,5.486,5.486,0,0,0-2.549,1.334,10.04,10.04,0,0,0-1.489,1.485,7.958,7.958,0,0,0-1.128,2.218c-.307.849-.548,1.792-.923,2.767a6.751,6.751,0,0,1-1.8,2.775,6.441,6.441,0,0,1-3.429,1.208,6.193,6.193,0,0,0-3.516,1.2,3.948,3.948,0,0,0-.923,3.689,5.927,5.927,0,0,0,2.295,3.5,7.212,7.212,0,0,0,4.192,1.456,6.274,6.274,0,0,0,2.272-.381,12.119,12.119,0,0,0,2.126-1.116,14.353,14.353,0,0,1,2.23-1.193,3.855,3.855,0,0,1,2.628-.16,4.436,4.436,0,0,1,2.112,1.626,21.163,21.163,0,0,1,1.4,2.227,7.4,7.4,0,0,0,1.59,1.942,2.789,2.789,0,0,0,2.18.742,2.464,2.464,0,0,0,1.78-1.351,5.746,5.746,0,0,0,.624-2.293c.087-1.589-.262-3.248.132-4.87a4.153,4.153,0,0,1,1.243-2.1,7.666,7.666,0,0,1,2.007-1.231c.7-.318,1.392-.586,2.039-.913a5.229,5.229,0,0,0,1.643-1.284,3.32,3.32,0,0,0,.838-1.777,1.99,1.99,0,0,0-.139-.916,2.036,2.036,0,0,0-.562-.725,3.269,3.269,0,0,0-1.742-.612c-.632-.07-1.269-.072-1.9-.109a6.865,6.865,0,0,1-1.852-.306,2.755,2.755,0,0,1-1.459-1.107,7.421,7.421,0,0,1-.69-3.233,4.631,4.631,0,0,0-.978-2.614,4.4,4.4,0,0,0-4.016-1.673,4.752,4.752,0,0,0-2.585,1.222A9.426,9.426,0,0,0,166.926,334.971Z" transform="translate(-149.686 -332.751)"/></g><g transform="translate(82.921 91.32)"><g transform="translate(0)"><path class="g" d="M151.345,317.459a3.125,3.125,0,0,1-1.841.9,5.922,5.922,0,0,1-2.258.016,3.912,3.912,0,0,1-2.422-1.389,5.283,5.283,0,0,1-.873-2.642,7.162,7.162,0,0,1,.16-2.242,2.993,2.993,0,0,1,.943-1.817,8.159,8.159,0,0,0-.623,1.882,7.73,7.73,0,0,0-.056,2.135,5.137,5.137,0,0,0,.82,2.407,3.62,3.62,0,0,0,2.138,1.249,6.175,6.175,0,0,0,2.115.078A9.372,9.372,0,0,0,151.345,317.459Z" transform="translate(-143.925 -310.287)"/></g></g><g transform="translate(109.451 95.947)"><path class="g" d="M192.913,315.783c.015.006-.006.089-.063.246a2.472,2.472,0,0,1-.348.635,3.936,3.936,0,0,1-2.205,1.472,4,4,0,0,1-1.873.042,4.954,4.954,0,0,1-1.887-1.008,6.257,6.257,0,0,0-1.87-1.145,1.69,1.69,0,0,0-1.89.749,17.093,17.093,0,0,0-1.092,2.16,4.375,4.375,0,0,1-1.566,1.787,4.2,4.2,0,0,1-5.92-1.277,2,2,0,0,1-.365-.9c.04-.017.153.312.514.8a4.324,4.324,0,0,0,2,1.5,3.937,3.937,0,0,0,3.533-.473,4,4,0,0,0,1.4-1.635A16.169,16.169,0,0,1,182.4,316.5a2.39,2.39,0,0,1,1.053-.861,2.1,2.1,0,0,1,1.333-.051,6.406,6.406,0,0,1,2.007,1.243,4.653,4.653,0,0,0,1.718.973,3.744,3.744,0,0,0,1.7.013,3.957,3.957,0,0,0,2.141-1.265C192.75,316.092,192.872,315.764,192.913,315.783Z" transform="translate(-173.831 -315.504)"/></g><g transform="translate(129.113 108.674)"><path class="g" d="M201.737,352.231a4.772,4.772,0,0,1-.985-.641,20.5,20.5,0,0,1-2.42-2.1,11.378,11.378,0,0,1-1.407-1.738,5.934,5.934,0,0,1-.884-2.44,4.81,4.81,0,0,1,.45-2.848,3.726,3.726,0,0,1,1-1.2,10.815,10.815,0,0,1,1.31-.834,5.476,5.476,0,0,0,1.181-.852,2.753,2.753,0,0,0,.68-1.171,6.741,6.741,0,0,0,.088-2.682,13.946,13.946,0,0,1-.182-2.554,3.087,3.087,0,0,1,.823-2.122,4.7,4.7,0,0,1,2.989-1.2c.807-.005,1.129.413,1.1.412a1.937,1.937,0,0,0-1.092-.232,4.724,4.724,0,0,0-2.765,1.253,2.776,2.776,0,0,0-.67,1.909,14.259,14.259,0,0,0,.222,2.479,7.027,7.027,0,0,1-.076,2.865,3.2,3.2,0,0,1-.785,1.363,5.854,5.854,0,0,1-1.277.93,4.793,4.793,0,0,0-2.146,1.843,4.429,4.429,0,0,0-.427,2.584,7.138,7.138,0,0,0,2.106,4.005C200.4,351.21,201.8,352.162,201.737,352.231Z" transform="translate(-195.996 -329.85)"/></g><g transform="translate(107.393 148.627)"><path class="g" d="M180.422,374.917a1.42,1.42,0,0,1,.415-.027,11.728,11.728,0,0,1,1.187.068,11.559,11.559,0,0,1,4.2,1.224,7.659,7.659,0,0,1,3.977,5.034,5.343,5.343,0,0,1-.553,3.842,5.191,5.191,0,0,1-3.335,2.493,4.689,4.689,0,0,1-2.154-.118,2.9,2.9,0,0,0-1.848-.033,3.541,3.541,0,0,0-1.433,1.1,10.329,10.329,0,0,0-.989,1.535,5.982,5.982,0,0,1-2.311,2.64,4.355,4.355,0,0,1-3.047.36,3.848,3.848,0,0,1-2.118-1.38,4.253,4.253,0,0,1-.813-1.724,3.524,3.524,0,0,1-.066-1.2,1.114,1.114,0,0,1,.092-.407,5.966,5.966,0,0,0,.148,1.562,4.215,4.215,0,0,0,.839,1.6,3.605,3.605,0,0,0,2,1.226,4.04,4.04,0,0,0,2.789-.381,5.648,5.648,0,0,0,2.12-2.51,5.692,5.692,0,0,1,2.634-2.854,3.351,3.351,0,0,1,2.114.01,4.22,4.22,0,0,0,1.955.112,4.764,4.764,0,0,0,3.036-2.267,4.932,4.932,0,0,0,.527-3.527,7.387,7.387,0,0,0-3.717-4.835A12.244,12.244,0,0,0,182,375.136C180.991,374.977,180.42,374.956,180.422,374.917Z" transform="translate(-171.512 -374.889)"/></g><g transform="translate(91.535 173.946)"><g transform="translate(0)"><path class="g" d="M161.8,407.44a6.155,6.155,0,0,0-.833-1.828,4.421,4.421,0,0,0-1.658-1.34,3.5,3.5,0,0,0-4.574,1.228,4.414,4.414,0,0,0-.764,1.99,6.117,6.117,0,0,0,.2,2c-.022.012-.147-.149-.29-.489a3.537,3.537,0,0,1-.231-1.54,4.479,4.479,0,0,1,.737-2.2,3.828,3.828,0,0,1,5.112-1.372,4.476,4.476,0,0,1,1.739,1.535,3.559,3.559,0,0,1,.572,1.448C161.848,407.237,161.82,407.44,161.8,407.44Z" transform="translate(-153.635 -403.431)"/></g></g><g transform="translate(79.901 186.788)"><g transform="translate(0)"><path class="g" d="M163.158,421.982c-.044.009-.082-.417-.4-1.089a4.668,4.668,0,0,0-2.126-2.184,4.39,4.39,0,0,0-4.325.327,6.9,6.9,0,0,0-1.791,2.021,5.9,5.9,0,0,1-1.014,1.154,2.362,2.362,0,0,1-1.546.574,3.845,3.845,0,0,1-2.662-1.6,8.835,8.835,0,0,0-1.879-1.965,3.32,3.32,0,0,0-2.3-.413,4.558,4.558,0,0,0-1.942.808,7.841,7.841,0,0,0-2.046,2.352,9.236,9.236,0,0,1-.606,1,4.194,4.194,0,0,1,.449-1.09,7.394,7.394,0,0,1,2.009-2.526,4.813,4.813,0,0,1,2.073-.923,3.683,3.683,0,0,1,2.585.428,8.945,8.945,0,0,1,2,2.034,3.443,3.443,0,0,0,2.324,1.43c.948.028,1.642-.766,2.185-1.53a7.2,7.2,0,0,1,1.924-2.113,4.59,4.59,0,0,1,6.851,2.142,3.821,3.821,0,0,1,.228.853C163.172,421.875,163.174,421.98,163.158,421.982Z" transform="translate(-140.52 -417.907)"/></g></g><g transform="translate(97.57 156.92)"><path class="g" d="M172.211,386a10.384,10.384,0,0,0-2.551-1.124,7.971,7.971,0,0,0-2.985-.161,7.157,7.157,0,0,0-3.369,1.311,6.139,6.139,0,0,0-2.129,2.883,6.387,6.387,0,0,0-.322,2.942,8.312,8.312,0,0,0,.942,2.609,1.913,1.913,0,0,1-.5-.59,5.247,5.247,0,0,1-.766-1.968,6.439,6.439,0,0,1,2.5-6.247,7.323,7.323,0,0,1,3.594-1.363,7.809,7.809,0,0,1,3.122.268,6.184,6.184,0,0,1,1.9.915C172.045,385.771,172.228,385.978,172.211,386Z" transform="translate(-160.438 -384.237)"/></g></g></g></svg>